<svg xmlns="http://www.w3.org/2000/svg" viewBox="0 0 594.81 88.21"><defs><style>.cls-1{fill:#0076c0;}.cls-2{fill:#00274c;}</style></defs><title>Asset 2</title><g id="Layer_2" data-name="Layer 2"><g id="AW"><path class="cls-1" d="M47.5,16.79l.6-.89a1.39,1.39,0,0,0,.2-.88,1.08,1.08,0,0,0,.72-.52l.85-1.27a1.12,1.12,0,0,0-.29-1.58h0A1.1,1.1,0,0,0,48,12l-.85,1.27a1.4,1.4,0,0,0-.2.87,1.09,1.09,0,0,0-.73.52l-.59.89a1.13,1.13,0,0,0,.29,1.59h0A1.1,1.1,0,0,0,47.5,16.79Z"/><path class="cls-1" d="M21.27,52l-.6.89a1.38,1.38,0,0,0-.2.87,1.1,1.1,0,0,0-.73.52l-.84,1.27a1.13,1.13,0,0,0,.29,1.59h0a1.11,1.11,0,0,0,1.58-.34l.85-1.27a1.36,1.36,0,0,0,.2-.87,1.06,1.06,0,0,0,.73-.52l.6-.89a1.12,1.12,0,0,0-.29-1.59h0A1.1,1.1,0,0,0,21.27,52Z"/><path class="cls-1" d="M55.08,27l1-.41a1.4,1.4,0,0,0,.65-.61,1.1,1.1,0,0,0,.89,0L59,25.41a1.12,1.12,0,0,0,.63-1.48v0a1.11,1.11,0,0,0-1.5-.59l-1.4.58a1.37,1.37,0,0,0-.65.61,1.11,1.11,0,0,0-.89,0l-1,.42a1.12,1.12,0,0,0-.64,1.48v0A1.11,1.11,0,0,0,55.08,27Z"/><path class="cls-1" d="M13.71,41.73l-1,.41a1.34,1.34,0,0,0-.65.61,1.08,1.08,0,0,0-.89,0l-1.41.58a1.12,1.12,0,0,0-.64,1.48v0a1.11,1.11,0,0,0,1.5.59L12,44.87a1.38,1.38,0,0,0,.65-.61,1.12,1.12,0,0,0,.89,0l1-.42a1.12,1.12,0,0,0,.63-1.48v0A1.11,1.11,0,0,0,13.71,41.73Z"/><path class="cls-1" d="M55.67,39.77l1,.21a1.4,1.4,0,0,0,.88-.15,1.1,1.1,0,0,0,.76.47l1.49.3a1.12,1.12,0,0,0,1.35-.88h0a1.11,1.11,0,0,0-.91-1.33l-1.49-.3a1.38,1.38,0,0,0-.88.15,1.11,1.11,0,0,0-.76-.48l-1.06-.21a1.12,1.12,0,0,0-1.35.88v0A1.11,1.11,0,0,0,55.67,39.77Z"/><path class="cls-1" d="M13.11,29l-1.05-.21a1.41,1.41,0,0,0-.88.15,1.1,1.1,0,0,0-.76-.47l-1.49-.3A1.13,1.13,0,0,0,7.57,29v0a1.11,1.11,0,0,0,.92,1.32l1.49.3a1.37,1.37,0,0,0,.88-.15,1.14,1.14,0,0,0,.76.47l1.05.21A1.12,1.12,0,0,0,14,30.34h0A1.12,1.12,0,0,0,13.11,29Z"/><path class="cls-1" d="M19.69,18.09l-.75-.76a1.43,1.43,0,0,0-.82-.37,1.12,1.12,0,0,0-.37-.81l-1.08-1.08a1.12,1.12,0,0,0-1.61,0h0a1.11,1.11,0,0,0,0,1.61l1.08,1.08a1.35,1.35,0,0,0,.81.37,1.09,1.09,0,0,0,.37.81l.76.76a1.12,1.12,0,0,0,1.61,0v0A1.1,1.1,0,0,0,19.69,18.09Z"/><path class="cls-1" d="M49.09,50.69l.76.76a1.38,1.38,0,0,0,.81.37,1.11,1.11,0,0,0,.37.82l1.08,1.07a1.12,1.12,0,0,0,1.61,0h0a1.11,1.11,0,0,0,0-1.61L52.63,51a1.38,1.38,0,0,0-.81-.37,1.09,1.09,0,0,0-.37-.82l-.76-.75a1.12,1.12,0,0,0-1.61,0v0A1.1,1.1,0,0,0,49.09,50.69Z"/><path class="cls-1" d="M35.52,12.47V11.39a1.4,1.4,0,0,0-.31-.84,1.14,1.14,0,0,0,.32-.83V8.2A1.13,1.13,0,0,0,34.39,7h0A1.11,1.11,0,0,0,33.25,8.2V9.72a1.37,1.37,0,0,0,.31.83,1.11,1.11,0,0,0-.31.84v1.08a1.12,1.12,0,0,0,1.12,1.15h0A1.11,1.11,0,0,0,35.52,12.47Z"/><path class="cls-1" d="M33.26,56.3v1.08a1.38,1.38,0,0,0,.31.83,1.1,1.1,0,0,0-.32.83v1.52a1.13,1.13,0,0,0,1.12,1.16h0a1.11,1.11,0,0,0,1.13-1.16V59.05a1.41,1.41,0,0,0-.32-.83,1.15,1.15,0,0,0,.32-.83V56.3a1.12,1.12,0,0,0-1.13-1.16h0A1.11,1.11,0,0,0,33.26,56.3Z"/><path class="cls-1" d="M31.22,12.67l-.21-1a1.39,1.39,0,0,0-.47-.76,1.08,1.08,0,0,0,.14-.88l-.29-1.49a1.13,1.13,0,0,0-1.33-.92h0a1.12,1.12,0,0,0-.88,1.35l.3,1.49a1.36,1.36,0,0,0,.48.76,1.08,1.08,0,0,0-.15.88L29,13.11a1.12,1.12,0,0,0,1.32.92h0A1.11,1.11,0,0,0,31.22,12.67Z"/><path class="cls-1" d="M37.55,56.1l.21,1.05a1.38,1.38,0,0,0,.47.75,1.07,1.07,0,0,0-.14.88l.29,1.49a1.12,1.12,0,0,0,1.32.92h0a1.12,1.12,0,0,0,.88-1.36l-.3-1.49a1.38,1.38,0,0,0-.47-.76,1.13,1.13,0,0,0,.15-.88l-.21-1.05a1.11,1.11,0,0,0-1.32-.91h0A1.11,1.11,0,0,0,37.55,56.1Z"/><path class="cls-1" d="M54.2,43.82l1,.42a1.4,1.4,0,0,0,.9,0,1.09,1.09,0,0,0,.65.61l1.41.58a1.12,1.12,0,0,0,1.49-.59v0A1.11,1.11,0,0,0,59,43.36l-1.41-.58a1.35,1.35,0,0,0-.89,0,1.08,1.08,0,0,0-.65-.61l-1-.41a1.13,1.13,0,0,0-1.5.59v0A1.11,1.11,0,0,0,54.2,43.82Z"/><path class="cls-1" d="M14.57,25l-1-.42a1.43,1.43,0,0,0-.89,0A1.09,1.09,0,0,0,12,23.9l-1.41-.58a1.12,1.12,0,0,0-1.5.59v0a1.11,1.11,0,0,0,.64,1.48l1.41.58a1.36,1.36,0,0,0,.89,0,1.11,1.11,0,0,0,.65.61l1,.41a1.12,1.12,0,0,0,1.5-.6v0A1.11,1.11,0,0,0,14.57,25Z"/><path class="cls-1" d="M39.77,13.11,40,12.05a1.38,1.38,0,0,0-.15-.88,1.11,1.11,0,0,0,.47-.76l.29-1.49a1.13,1.13,0,0,0-.88-1.36h0a1.11,1.11,0,0,0-1.32.92L38.09,10a1.34,1.34,0,0,0,.14.88,1.08,1.08,0,0,0-.47.76l-.21,1A1.12,1.12,0,0,0,38.43,14h0A1.11,1.11,0,0,0,39.77,13.11Z"/><path class="cls-1" d="M29,55.66l-.21,1.05a1.39,1.39,0,0,0,.15.88,1.11,1.11,0,0,0-.48.76l-.29,1.48A1.13,1.13,0,0,0,29,61.21h0a1.11,1.11,0,0,0,1.32-.92l.29-1.49a1.36,1.36,0,0,0-.14-.88,1.06,1.06,0,0,0,.47-.75l.21-1.05a1.12,1.12,0,0,0-.87-1.36h0A1.1,1.1,0,0,0,29,55.66Z"/><path class="cls-1" d="M45.62,53.24l.6.89a1.37,1.37,0,0,0,.72.52,1.11,1.11,0,0,0,.2.87L48,56.79a1.12,1.12,0,0,0,1.57.34l0,0a1.11,1.11,0,0,0,.29-1.58L49,54.27a1.4,1.4,0,0,0-.72-.52,1.13,1.13,0,0,0-.2-.87l-.6-.89a1.12,1.12,0,0,0-1.57-.34h0A1.1,1.1,0,0,0,45.62,53.24Z"/><path class="cls-1" d="M23.15,15.53l-.6-.89a1.35,1.35,0,0,0-.72-.52,1.14,1.14,0,0,0-.2-.87L20.78,12a1.12,1.12,0,0,0-1.57-.34h0a1.1,1.1,0,0,0-.29,1.58l.84,1.27a1.36,1.36,0,0,0,.73.52,1.09,1.09,0,0,0,.2.88l.6.89a1.12,1.12,0,0,0,1.57.34h0A1.11,1.11,0,0,0,23.15,15.53Z"/><path class="cls-1" d="M50.69,19.68l.76-.76a1.36,1.36,0,0,0,.37-.81,1.1,1.1,0,0,0,.81-.37l1.08-1.08a1.12,1.12,0,0,0,0-1.61h0a1.1,1.1,0,0,0-1.61,0L51,16.14a1.37,1.37,0,0,0-.36.81,1.11,1.11,0,0,0-.82.37l-.76.76a1.12,1.12,0,0,0,0,1.61h0A1.1,1.1,0,0,0,50.69,19.68Z"/><path class="cls-1" d="M18.09,49.09l-.76.75a1.4,1.4,0,0,0-.37.82,1.12,1.12,0,0,0-.81.37L15.07,52.1a1.12,1.12,0,0,0,0,1.61h0a1.11,1.11,0,0,0,1.61,0l1.08-1.08a1.36,1.36,0,0,0,.37-.82,1.08,1.08,0,0,0,.82-.37l.75-.76a1.12,1.12,0,0,0,0-1.61h0A1.11,1.11,0,0,0,18.09,49.09Z"/><path class="cls-1" d="M56.11,31.22,57.16,31a1.4,1.4,0,0,0,.76-.47,1.11,1.11,0,0,0,.88.15l1.49-.3a1.13,1.13,0,0,0,.92-1.32v0a1.12,1.12,0,0,0-1.35-.87l-1.49.3a1.4,1.4,0,0,0-.76.47,1.09,1.09,0,0,0-.88-.15l-1,.21a1.13,1.13,0,0,0-.92,1.33h0A1.1,1.1,0,0,0,56.11,31.22Z"/><path class="cls-1" d="M12.67,37.55l-1.06.21a1.38,1.38,0,0,0-.75.47,1.08,1.08,0,0,0-.88-.15l-1.5.3a1.12,1.12,0,0,0-.91,1.32v0a1.11,1.11,0,0,0,1.36.88l1.49-.3a1.38,1.38,0,0,0,.76-.47,1.09,1.09,0,0,0,.88.15l1.05-.21A1.12,1.12,0,0,0,14,38.45v0A1.11,1.11,0,0,0,12.67,37.55Z"/><path class="cls-1" d="M52,47.51l.9.6a1.43,1.43,0,0,0,.87.2,1.11,1.11,0,0,0,.52.72l1.26.85a1.12,1.12,0,0,0,1.59-.29h0A1.1,1.1,0,0,0,56.79,48l-1.26-.85a1.42,1.42,0,0,0-.87-.2,1.13,1.13,0,0,0-.52-.73l-.9-.59a1.13,1.13,0,0,0-1.59.29v0A1.11,1.11,0,0,0,52,47.51Z"/><path class="cls-1" d="M16.79,21.27l-.89-.6a1.38,1.38,0,0,0-.86-.2,1.13,1.13,0,0,0-.53-.73l-1.26-.84a1.13,1.13,0,0,0-1.58.29v0A1.11,1.11,0,0,0,12,20.78l1.27.85a1.39,1.39,0,0,0,.87.2,1.14,1.14,0,0,0,.52.73l.89.59a1.12,1.12,0,0,0,1.58-.29v0A1.11,1.11,0,0,0,16.79,21.27Z"/><path class="cls-1" d="M43.83,14.57l.41-1a1.41,1.41,0,0,0,0-.9,1.07,1.07,0,0,0,.61-.65l.58-1.41a1.12,1.12,0,0,0-.59-1.5h0a1.11,1.11,0,0,0-1.49.64l-.58,1.4a1.42,1.42,0,0,0,0,.9,1.07,1.07,0,0,0-.61.65l-.41,1a1.11,1.11,0,0,0,.6,1.49h0A1.11,1.11,0,0,0,43.83,14.57Z"/><path class="cls-1" d="M25,54.2l-.41,1a1.38,1.38,0,0,0,0,.89,1.08,1.08,0,0,0-.61.65l-.58,1.41a1.12,1.12,0,0,0,.6,1.49h0A1.12,1.12,0,0,0,25.41,59l.58-1.4a1.4,1.4,0,0,0,0-.9,1.11,1.11,0,0,0,.61-.65l.41-1a1.13,1.13,0,0,0-.6-1.5h0A1.12,1.12,0,0,0,25,54.2Z"/><path class="cls-1" d="M41.73,55.07l.41,1a1.4,1.4,0,0,0,.61.65,1.11,1.11,0,0,0,0,.89L43.36,59a1.13,1.13,0,0,0,1.48.64h0a1.11,1.11,0,0,0,.59-1.49l-.58-1.41a1.34,1.34,0,0,0-.61-.65,1.12,1.12,0,0,0,0-.9l-.41-1a1.13,1.13,0,0,0-1.48-.64h0A1.11,1.11,0,0,0,41.73,55.07Z"/><path class="cls-1" d="M27,13.7l-.41-1a1.37,1.37,0,0,0-.61-.65,1.08,1.08,0,0,0,0-.9l-.58-1.4a1.12,1.12,0,0,0-1.48-.64h0a1.11,1.11,0,0,0-.6,1.49L23.9,12a1.34,1.34,0,0,0,.61.65,1.09,1.09,0,0,0,0,.9l.41,1a1.12,1.12,0,0,0,1.48.64h0A1.1,1.1,0,0,0,27,13.7Z"/><path class="cls-1" d="M53.24,23.15l.9-.59a1.4,1.4,0,0,0,.52-.73,1.1,1.1,0,0,0,.87-.2l1.26-.85a1.12,1.12,0,0,0,.34-1.57v0a1.11,1.11,0,0,0-1.58-.29l-1.27.84a1.39,1.39,0,0,0-.52.73,1.06,1.06,0,0,0-.87.2l-.9.6a1.12,1.12,0,0,0-.34,1.57v0A1.11,1.11,0,0,0,53.24,23.15Z"/><path class="cls-1" d="M15.53,45.62l-.89.59a1.41,1.41,0,0,0-.52.73,1.11,1.11,0,0,0-.87.2L12,48a1.12,1.12,0,0,0-.33,1.57h0a1.11,1.11,0,0,0,1.58.29L14.51,49a1.4,1.4,0,0,0,.53-.72,1.08,1.08,0,0,0,.86-.21l.89-.59a1.13,1.13,0,0,0,.34-1.58v0A1.11,1.11,0,0,0,15.53,45.62Z"/><path class="cls-1" d="M56.31,35.52h1.07a1.38,1.38,0,0,0,.83-.32,1.08,1.08,0,0,0,.84.32h1.52a1.13,1.13,0,0,0,1.16-1.12h0a1.11,1.11,0,0,0-1.15-1.13H59.05a1.38,1.38,0,0,0-.84.31,1.08,1.08,0,0,0-.83-.32H56.31a1.13,1.13,0,0,0-1.16,1.13h0A1.11,1.11,0,0,0,56.31,35.52Z"/><path class="cls-1" d="M12.47,33.25H11.39a1.36,1.36,0,0,0-.83.31,1.08,1.08,0,0,0-.83-.32H8.19A1.12,1.12,0,0,0,7,34.38H7A1.11,1.11,0,0,0,8.2,35.52H9.72a1.35,1.35,0,0,0,.83-.32,1.09,1.09,0,0,0,.83.32h1.08a1.12,1.12,0,0,0,1.16-1.12v0A1.12,1.12,0,0,0,12.47,33.25Z"/><path class="cls-1" d="M45.44,19.88l.15-.21a1,1,0,0,0-.25-1.36l-.28-.19a1,1,0,0,0-1.35.29l-.14.22A1,1,0,0,0,43.8,20l.29.19A1,1,0,0,0,45.44,19.88Z"/><path class="cls-1" d="M23.34,48.89l-.15.22a1,1,0,0,0,.25,1.36l.28.19a1,1,0,0,0,1.35-.3l.15-.21A1,1,0,0,0,25,48.79l-.29-.19A1,1,0,0,0,23.34,48.89Z"/><path class="cls-1" d="M51.63,28.47l.24-.1a1,1,0,0,0,.55-1.27l-.13-.31A1,1,0,0,0,51,26.28l-.24.1a1,1,0,0,0-.55,1.27l.13.32A1,1,0,0,0,51.63,28.47Z"/><path class="cls-1" d="M17.14,40.3l-.25.1a1,1,0,0,0-.55,1.27l.14.31a1,1,0,0,0,1.28.51l.25-.1a1,1,0,0,0,.55-1.27l-.13-.32A1,1,0,0,0,17.14,40.3Z"/><path class="cls-1" d="M52,39l.26.06a1,1,0,0,0,1.16-.75l.06-.34a1,1,0,0,0-.78-1.14l-.26,0a1,1,0,0,0-1.16.75l-.07.33A1,1,0,0,0,52,39Z"/><path class="cls-1" d="M16.76,29.73l-.26-.06a1,1,0,0,0-1.16.75l-.06.33a1,1,0,0,0,.78,1.14l.26,0a1,1,0,0,0,1.16-.75l.07-.33A1,1,0,0,0,16.76,29.73Z"/><path class="cls-1" d="M22.32,20.72l-.19-.19a1,1,0,0,0-1.38,0l-.24.24a1,1,0,0,0,0,1.38l.19.19a1,1,0,0,0,1.38,0l.24-.25A1,1,0,0,0,22.32,20.72Z"/><path class="cls-1" d="M46.46,48.06l.19.18a1,1,0,0,0,1.38,0l.24-.24a1,1,0,0,0,0-1.39l-.19-.18a1,1,0,0,0-1.38,0l-.24.24A1,1,0,0,0,46.46,48.06Z"/><path class="cls-1" d="M35.52,16.19v-.26a1,1,0,0,0-1-1h-.35a1,1,0,0,0-1,1v.26a1,1,0,0,0,1,1h.35A.94.94,0,0,0,35.52,16.19Z"/><path class="cls-1" d="M33.26,52.58v.26a1,1,0,0,0,1,1h.35a1,1,0,0,0,1-1v-.26a1,1,0,0,0-1-1h-.35A1,1,0,0,0,33.26,52.58Z"/><path class="cls-1" d="M32,16.32l-.06-.26a1,1,0,0,0-1.14-.78l-.33.06a1,1,0,0,0-.75,1.17l0,.26a1,1,0,0,0,1.14.78l.33-.06A1,1,0,0,0,32,16.32Z"/><path class="cls-1" d="M36.83,52.45l.05.25a1,1,0,0,0,1.14.79l.33-.06a1,1,0,0,0,.75-1.16l0-.26a1,1,0,0,0-1.14-.78l-.33.06A1,1,0,0,0,36.83,52.45Z"/><path class="cls-1" d="M50.77,42.4l.24.1A1,1,0,0,0,52.29,42l.13-.31a1,1,0,0,0-.55-1.27l-.24-.1a1,1,0,0,0-1.29.51l-.12.32A1,1,0,0,0,50.77,42.4Z"/><path class="cls-1" d="M18,26.38l-.25-.1a1,1,0,0,0-1.28.51l-.14.31a1,1,0,0,0,.55,1.27l.25.1A1,1,0,0,0,18.43,28l.13-.32A1,1,0,0,0,18,26.38Z"/><path class="cls-1" d="M39.05,16.76l.05-.26a1,1,0,0,0-.75-1.16L38,15.28a1,1,0,0,0-1.14.78l-.05.26a1,1,0,0,0,.75,1.15l.33.06A1,1,0,0,0,39.05,16.76Z"/><path class="cls-1" d="M29.72,52l0,.26a1,1,0,0,0,.75,1.16l.33.07a1,1,0,0,0,1.14-.79l.06-.25a1,1,0,0,0-.76-1.16l-.33-.06A1,1,0,0,0,29.72,52Z"/><path class="cls-1" d="M43.56,50.15l.15.21a1,1,0,0,0,1.35.3l.28-.19a1,1,0,0,0,.25-1.36l-.15-.22a1,1,0,0,0-1.35-.29l-.29.19A1,1,0,0,0,43.56,50.15Z"/><path class="cls-1" d="M25.22,18.63l-.15-.22a1,1,0,0,0-1.34-.29l-.28.19a1,1,0,0,0-.25,1.36l.15.21a1,1,0,0,0,1.35.29L25,20A1,1,0,0,0,25.22,18.63Z"/><path class="cls-1" d="M48.06,22.32l.19-.19a1,1,0,0,0,0-1.38L48,20.51a1,1,0,0,0-1.38,0l-.19.19a1,1,0,0,0,0,1.38l.24.25A1,1,0,0,0,48.06,22.32Z"/><path class="cls-1" d="M20.72,46.45l-.19.19a1,1,0,0,0,0,1.39l.24.24a1,1,0,0,0,1.38,0l.18-.19a1,1,0,0,0,0-1.38l-.24-.24A1,1,0,0,0,20.72,46.45Z"/><path class="cls-1" d="M52.46,31.95l.26-.05a1,1,0,0,0,.78-1.14l-.06-.33a1,1,0,0,0-1.16-.75l-.26.06a1,1,0,0,0-.79,1.14l.07.33A1,1,0,0,0,52.46,31.95Z"/><path class="cls-1" d="M16.32,36.83l-.26,0A1,1,0,0,0,15.28,38l.07.34a1,1,0,0,0,1.16.75l.26-.06a1,1,0,0,0,.78-1.14l-.07-.33A.94.94,0,0,0,16.32,36.83Z"/><path class="cls-1" d="M48.89,45.43l.22.15a1,1,0,0,0,1.36-.25l.19-.28a1,1,0,0,0-.29-1.35l-.22-.15a1,1,0,0,0-1.36.25l-.19.28A1,1,0,0,0,48.89,45.43Z"/><path class="cls-1" d="M19.88,23.34l-.22-.15a1,1,0,0,0-1.36.25l-.19.28a1,1,0,0,0,.29,1.35l.22.14A1,1,0,0,0,20,25l.19-.28A1,1,0,0,0,19.88,23.34Z"/><path class="cls-1" d="M42.4,18l.1-.24A1,1,0,0,0,42,16.48l-.31-.13a1,1,0,0,0-1.27.54l-.1.25a1,1,0,0,0,.51,1.28l.31.13A1,1,0,0,0,42.4,18Z"/><path class="cls-1" d="M26.37,50.77l-.1.24a1,1,0,0,0,.51,1.29l.31.13a1,1,0,0,0,1.27-.55l.1-.24A1,1,0,0,0,28,50.35l-.31-.13A1,1,0,0,0,26.37,50.77Z"/><path class="cls-1" d="M40.3,51.63l.1.24a1,1,0,0,0,1.27.55l.32-.12A1,1,0,0,0,42.5,51l-.1-.24a1,1,0,0,0-1.27-.55l-.31.13A1,1,0,0,0,40.3,51.63Z"/><path class="cls-1" d="M28.47,17.14l-.1-.25a1,1,0,0,0-1.27-.54l-.31.13a1,1,0,0,0-.51,1.29l.1.24a1,1,0,0,0,1.27.55l.31-.13A1,1,0,0,0,28.47,17.14Z"/><path class="cls-1" d="M50.15,25.22l.22-.14a1,1,0,0,0,.29-1.35l-.19-.29a1,1,0,0,0-1.36-.25l-.22.15a1,1,0,0,0-.29,1.35l.18.28A1,1,0,0,0,50.15,25.22Z"/><path class="cls-1" d="M18.63,43.56l-.22.15a1,1,0,0,0-.29,1.35l.19.28a1,1,0,0,0,1.36.25l.22-.15a1,1,0,0,0,.29-1.35L20,43.81A1,1,0,0,0,18.63,43.56Z"/><path class="cls-1" d="M52.59,35.52h.26a1,1,0,0,0,1-1v-.34a1,1,0,0,0-1-1h-.26a1,1,0,0,0-1,1v.34A1,1,0,0,0,52.59,35.52Z"/><path class="cls-1" d="M16.19,33.25h-.27a1,1,0,0,0-1,1v.34a1,1,0,0,0,1,1h.27a1,1,0,0,0,1-1v-.34A1,1,0,0,0,16.19,33.25Z"/><path class="cls-1" d="M53.2,8.28l.6-.89A1.12,1.12,0,0,0,53.5,5.8h0a1.11,1.11,0,0,0-1.58.34l-.6.89a1.13,1.13,0,0,0,.29,1.59h0A1.11,1.11,0,0,0,53.2,8.28Z"/><path class="cls-1" d="M15.58,60.5l-.6.9A1.11,1.11,0,0,0,15.28,63h0a1.11,1.11,0,0,0,1.58-.34l.59-.89a1.12,1.12,0,0,0-.29-1.59h0A1.11,1.11,0,0,0,15.58,60.5Z"/><path class="cls-1" d="M64.53,23.13l1-.42a1.11,1.11,0,0,0,.63-1.47v0a1.1,1.1,0,0,0-1.49-.6l-1,.41A1.12,1.12,0,0,0,63,22.51v0A1.11,1.11,0,0,0,64.53,23.13Z"/><path class="cls-1" d="M4.24,45.65l-1,.41a1.12,1.12,0,0,0-.64,1.48v0a1.1,1.1,0,0,0,1.5.59l1-.41a1.12,1.12,0,0,0,.64-1.48v0A1.11,1.11,0,0,0,4.24,45.65Z"/><path class="cls-1" d="M65.71,41.77l1.05.21a1.12,1.12,0,0,0,1.35-.88v0a1.11,1.11,0,0,0-.91-1.33l-1.06-.21a1.12,1.12,0,0,0-1.35.87v0A1.1,1.1,0,0,0,65.71,41.77Z"/><path class="cls-1" d="M3.07,27l-1-.21a1.13,1.13,0,0,0-1.36.87v0A1.11,1.11,0,0,0,1.58,29l1,.21A1.12,1.12,0,0,0,4,28.35v0A1.11,1.11,0,0,0,3.07,27Z"/><path class="cls-1" d="M12.45,10.85l-.76-.77a1.13,1.13,0,0,0-1.61,0h0a1.12,1.12,0,0,0,0,1.61l.76.76a1.12,1.12,0,0,0,1.61,0v0A1.1,1.1,0,0,0,12.45,10.85Z"/><path class="cls-1" d="M56.33,57.93l.75.76a1.13,1.13,0,0,0,1.62,0h0a1.11,1.11,0,0,0,0-1.61l-.76-.76a1.12,1.12,0,0,0-1.61,0h0A1.11,1.11,0,0,0,56.33,57.93Z"/><path class="cls-1" d="M35.52,2.23V1.16A1.12,1.12,0,0,0,34.39,0h0a1.1,1.1,0,0,0-1.12,1.16V2.23a1.12,1.12,0,0,0,1.12,1.16h0A1.11,1.11,0,0,0,35.52,2.23Z"/><path class="cls-1" d="M33.26,66.55v1.07a1.12,1.12,0,0,0,1.12,1.15h0a1.11,1.11,0,0,0,1.12-1.15V66.55a1.12,1.12,0,0,0-1.12-1.16h0A1.11,1.11,0,0,0,33.26,66.55Z"/><path class="cls-1" d="M29.23,2.62,29,1.57A1.13,1.13,0,0,0,27.69.66h0A1.11,1.11,0,0,0,26.79,2L27,3.07A1.13,1.13,0,0,0,28.33,4h0A1.12,1.12,0,0,0,29.23,2.62Z"/><path class="cls-1" d="M39.55,66.15l.21,1.05a1.13,1.13,0,0,0,1.33.91h0A1.12,1.12,0,0,0,42,66.76l-.21-1.05a1.12,1.12,0,0,0-1.33-.91h0A1.11,1.11,0,0,0,39.55,66.15Z"/><path class="cls-1" d="M63.66,47.74l1,.41a1.12,1.12,0,0,0,1.5-.59v0a1.1,1.1,0,0,0-.63-1.48l-1-.41a1.12,1.12,0,0,0-1.5.59v0A1.11,1.11,0,0,0,63.66,47.74Z"/><path class="cls-1" d="M5.11,21l-1-.41a1.12,1.12,0,0,0-1.5.6v0a1.09,1.09,0,0,0,.63,1.47l1,.42a1.12,1.12,0,0,0,1.5-.6v0A1.11,1.11,0,0,0,5.11,21Z"/><path class="cls-1" d="M41.77,3.07,42,2A1.13,1.13,0,0,0,41.11.66h0a1.11,1.11,0,0,0-1.33.91l-.21,1.05A1.12,1.12,0,0,0,40.42,4h0A1.11,1.11,0,0,0,41.77,3.07Z"/><path class="cls-1" d="M27,65.7l-.21,1.05a1.13,1.13,0,0,0,.87,1.36h0A1.11,1.11,0,0,0,29,67.2l.21-1.05a1.13,1.13,0,0,0-.88-1.35h0A1.11,1.11,0,0,0,27,65.7Z"/><path class="cls-1" d="M51.31,61.76l.6.89a1.12,1.12,0,0,0,1.58.34h0a1.1,1.1,0,0,0,.29-1.58l-.6-.9a1.12,1.12,0,0,0-1.58-.33h0A1.11,1.11,0,0,0,51.31,61.76Z"/><path class="cls-1" d="M17.46,7l-.59-.89a1.13,1.13,0,0,0-1.58-.34h0A1.11,1.11,0,0,0,15,7.38l.6.89a1.12,1.12,0,0,0,1.57.34h0A1.12,1.12,0,0,0,17.46,7Z"/><path class="cls-1" d="M57.93,12.45l.76-.76a1.13,1.13,0,0,0,0-1.61h0a1.11,1.11,0,0,0-1.61,0l-.76.76a1.11,1.11,0,0,0,0,1.6l0,0A1.11,1.11,0,0,0,57.93,12.45Z"/><path class="cls-1" d="M10.85,56.33l-.76.76a1.13,1.13,0,0,0,0,1.61v0a1.11,1.11,0,0,0,1.61,0l.76-.76a1.12,1.12,0,0,0,0-1.61h0A1.1,1.1,0,0,0,10.85,56.33Z"/><path class="cls-1" d="M66.15,29.22l1-.21a1.12,1.12,0,0,0,.92-1.32v0a1.11,1.11,0,0,0-1.35-.87L65.71,27a1.12,1.12,0,0,0-.92,1.33v0A1.11,1.11,0,0,0,66.15,29.22Z"/><path class="cls-1" d="M2.63,39.55l-1,.21a1.12,1.12,0,0,0-.92,1.32v0A1.11,1.11,0,0,0,2,42l1-.21A1.13,1.13,0,0,0,4,40.45v0A1.11,1.11,0,0,0,2.63,39.55Z"/><path class="cls-1" d="M60.49,53.19l.9.6A1.12,1.12,0,0,0,63,53.5v0a1.11,1.11,0,0,0-.34-1.58l-.89-.6a1.12,1.12,0,0,0-1.59.29v0A1.11,1.11,0,0,0,60.49,53.19Z"/><path class="cls-1" d="M8.28,15.58l-.9-.6a1.12,1.12,0,0,0-1.58.3h0a1.11,1.11,0,0,0,.34,1.58l.89.59a1.12,1.12,0,0,0,1.58-.29v0A1.11,1.11,0,0,0,8.28,15.58Z"/><path class="cls-1" d="M47.74,5.11l.41-1a1.12,1.12,0,0,0-.6-1.49h0a1.11,1.11,0,0,0-1.48.64l-.41,1a1.13,1.13,0,0,0,.6,1.5h0A1.11,1.11,0,0,0,47.74,5.11Z"/><path class="cls-1" d="M21,63.67l-.41,1a1.12,1.12,0,0,0,.59,1.5h0a1.12,1.12,0,0,0,1.49-.63l.41-1a1.12,1.12,0,0,0-.6-1.5h0A1.11,1.11,0,0,0,21,63.67Z"/><path class="cls-1" d="M45.64,64.53l.41,1a1.12,1.12,0,0,0,1.48.63h0a1.12,1.12,0,0,0,.6-1.5l-.42-1A1.12,1.12,0,0,0,46.26,63h0A1.11,1.11,0,0,0,45.64,64.53Z"/><path class="cls-1" d="M23.13,4.24l-.41-1a1.12,1.12,0,0,0-1.48-.64h0a1.1,1.1,0,0,0-.59,1.49l.41,1a1.13,1.13,0,0,0,1.48.64h0A1.11,1.11,0,0,0,23.13,4.24Z"/><path class="cls-1" d="M61.76,17.46l.89-.59A1.12,1.12,0,0,0,63,15.29v0A1.12,1.12,0,0,0,61.39,15l-.9.6a1.12,1.12,0,0,0-.33,1.58v0A1.11,1.11,0,0,0,61.76,17.46Z"/><path class="cls-1" d="M7,51.31l-.89.6a1.12,1.12,0,0,0-.34,1.57v0a1.11,1.11,0,0,0,1.58.29l.9-.6a1.12,1.12,0,0,0,.33-1.57v0A1.1,1.1,0,0,0,7,51.31Z"/><path class="cls-1" d="M66.55,35.52h1.08a1.12,1.12,0,0,0,1.15-1.12v0a1.11,1.11,0,0,0-1.15-1.12H66.55a1.12,1.12,0,0,0-1.16,1.13h0A1.11,1.11,0,0,0,66.55,35.52Z"/><path class="cls-1" d="M2.23,33.26H1.15A1.12,1.12,0,0,0,0,34.38v0a1.11,1.11,0,0,0,1.15,1.12H2.23a1.12,1.12,0,0,0,1.16-1.12h0A1.11,1.11,0,0,0,2.23,33.26Z"/><path class="cls-1" d="M51.61,10.66l.15-.22a1,1,0,0,0-.25-1.36l-.28-.19a1,1,0,0,0-1.35.29l-.15.22A1,1,0,0,0,50,10.75l.28.19A.94.94,0,0,0,51.61,10.66Z"/><path class="cls-1" d="M17.17,58.12l-.15.22a1,1,0,0,0,.25,1.36l.28.19a1,1,0,0,0,1.35-.29l.15-.22A1,1,0,0,0,18.8,58l-.28-.19A1,1,0,0,0,17.17,58.12Z"/><path class="cls-1" d="M61.89,24.22l.25-.1a1,1,0,0,0,.55-1.28l-.13-.31A1,1,0,0,0,61.27,22l-.24.1a1,1,0,0,0-.55,1.28l.14.31A1,1,0,0,0,61.89,24.22Z"/><path class="cls-1" d="M6.88,44.55l-.24.1a1,1,0,0,0-.55,1.27l.13.31a1,1,0,0,0,1.28.51l.25-.11a1,1,0,0,0,.54-1.26l-.12-.32A1,1,0,0,0,6.88,44.55Z"/><path class="cls-1" d="M62.9,41.21l.26.05a1,1,0,0,0,1.16-.75l.06-.33A1,1,0,0,0,63.6,39L63.34,39a1,1,0,0,0-1.16.75l-.06.33A1,1,0,0,0,62.9,41.21Z"/><path class="cls-1" d="M5.87,27.56l-.26,0a1,1,0,0,0-1.17.75l-.06.33a1,1,0,0,0,.78,1.14l.26,0A1,1,0,0,0,6.59,29l.06-.33A1,1,0,0,0,5.87,27.56Z"/><path class="cls-1" d="M14.47,12.87l-.19-.19a1,1,0,0,0-1.38,0l-.24.24a1,1,0,0,0,0,1.38l.18.19a1,1,0,0,0,1.39,0l.24-.24A1,1,0,0,0,14.47,12.87Z"/><path class="cls-1" d="M54.3,55.9l.19.19a1,1,0,0,0,1.38,0l.25-.24a1,1,0,0,0,0-1.38l-.19-.19a1,1,0,0,0-1.38,0l-.24.24A1,1,0,0,0,54.3,55.9Z"/><path class="cls-1" d="M35.52,5.09V4.82a1,1,0,0,0-1-1h-.35a1,1,0,0,0-1,1v.26a1,1,0,0,0,1,1h.34A.94.94,0,0,0,35.52,5.09Z"/><path class="cls-1" d="M33.25,63.68v.26a1,1,0,0,0,1,1h.35a1,1,0,0,0,1-1v-.26a1,1,0,0,0-1-1h-.35A1,1,0,0,0,33.25,63.68Z"/><path class="cls-1" d="M29.79,5.43l-.05-.25a1,1,0,0,0-1.14-.79l-.33.07a1,1,0,0,0-.76,1.16l.06.26a1,1,0,0,0,1.13.78L29,6.59A1,1,0,0,0,29.79,5.43Z"/><path class="cls-1" d="M39,63.35l.06.26a1,1,0,0,0,1.13.78l.33-.07a1,1,0,0,0,.75-1.16l-.05-.26a1,1,0,0,0-1.13-.78l-.33.06A1,1,0,0,0,39,63.35Z"/><path class="cls-1" d="M61,46.64l.24.11a1,1,0,0,0,1.29-.51l.13-.31a1,1,0,0,0-.55-1.27l-.25-.1a1,1,0,0,0-1.28.51l-.13.32A1,1,0,0,0,61,46.64Z"/><path class="cls-1" d="M7.75,22.12,7.5,22a1,1,0,0,0-1.28.51l-.13.31a1,1,0,0,0,.55,1.28l.24.1a1,1,0,0,0,1.29-.51l.12-.32A1,1,0,0,0,7.75,22.12Z"/><path class="cls-1" d="M41.21,5.87l.05-.26a1,1,0,0,0-.75-1.16l-.33-.07A1,1,0,0,0,39,5.17L39,5.43a1,1,0,0,0,.75,1.16l.33.07A1,1,0,0,0,41.21,5.87Z"/><path class="cls-1" d="M27.57,62.9l-.06.26a1,1,0,0,0,.75,1.16l.33.07a1,1,0,0,0,1.14-.78l.05-.26A1,1,0,0,0,29,62.18l-.34-.06A.94.94,0,0,0,27.57,62.9Z"/><path class="cls-1" d="M49.72,59.38l.15.22a1,1,0,0,0,1.35.29l.28-.19a1,1,0,0,0,.25-1.36l-.15-.22a1,1,0,0,0-1.35-.29L50,58A1,1,0,0,0,49.72,59.38Z"/><path class="cls-1" d="M19.05,9.39l-.15-.21a1,1,0,0,0-1.35-.29l-.28.19A1,1,0,0,0,17,10.43l.15.22a1,1,0,0,0,1.35.28l.28-.19A1,1,0,0,0,19.05,9.39Z"/><path class="cls-1" d="M55.91,14.47l.19-.18a1,1,0,0,0,0-1.38l-.24-.24a1,1,0,0,0-1.38,0l-.19.19a1,1,0,0,0,0,1.38l.24.24A1,1,0,0,0,55.91,14.47Z"/><path class="cls-1" d="M12.87,54.31l-.19.19a1,1,0,0,0,0,1.38l.24.24a1,1,0,0,0,1.38,0l.18-.19a1,1,0,0,0,0-1.38l-.24-.24A1,1,0,0,0,12.87,54.31Z"/><path class="cls-1" d="M63.34,29.78l.26,0a1,1,0,0,0,.78-1.14l-.07-.33a1,1,0,0,0-1.16-.75l-.25,0a1,1,0,0,0-.79,1.14l.07.33A1,1,0,0,0,63.34,29.78Z"/><path class="cls-1" d="M5.43,39,5.17,39a1,1,0,0,0-.78,1.13l.06.33a1,1,0,0,0,1.17.75l.26-.05a1,1,0,0,0,.78-1.13l-.06-.33A1,1,0,0,0,5.43,39Z"/><path class="cls-1" d="M58.12,51.61l.22.14a1,1,0,0,0,1.36-.25l.19-.28a1,1,0,0,0-.29-1.36l-.23-.14A1,1,0,0,0,58,50l-.19.28A1,1,0,0,0,58.12,51.61Z"/><path class="cls-1" d="M10.66,17.17,10.43,17a1,1,0,0,0-1.36.25l-.19.28a1,1,0,0,0,.29,1.35l.22.15a1,1,0,0,0,1.36-.25l.19-.29A1,1,0,0,0,10.66,17.17Z"/><path class="cls-1" d="M46.65,7.75l.1-.25a1,1,0,0,0-.51-1.28l-.31-.13a1,1,0,0,0-1.27.55l-.1.25a1,1,0,0,0,.51,1.28l.32.13A1,1,0,0,0,46.65,7.75Z"/><path class="cls-1" d="M22.12,61l-.09.24a1,1,0,0,0,.5,1.29l.32.13a.94.94,0,0,0,1.27-.55l.1-.24a1,1,0,0,0-.51-1.28l-.32-.13A1,1,0,0,0,22.12,61Z"/><path class="cls-1" d="M44.56,61.89l.1.24a1,1,0,0,0,1.27.55l.31-.13a1,1,0,0,0,.51-1.29l-.1-.24a1,1,0,0,0-1.27-.54l-.32.13A1,1,0,0,0,44.56,61.89Z"/><path class="cls-1" d="M24.22,6.88l-.1-.24a1,1,0,0,0-1.27-.55l-.32.13A1,1,0,0,0,22,7.5l.09.25a1,1,0,0,0,1.28.54l.31-.13A1,1,0,0,0,24.22,6.88Z"/><path class="cls-1" d="M59.37,19.05l.23-.15a1,1,0,0,0,.29-1.35l-.19-.28A1,1,0,0,0,58.34,17l-.22.15a1,1,0,0,0-.29,1.35l.19.29A1,1,0,0,0,59.37,19.05Z"/><path class="cls-1" d="M9.4,49.72l-.22.15a1,1,0,0,0-.29,1.36l.19.28a1,1,0,0,0,1.36.25l.22-.14a1,1,0,0,0,.29-1.35L10.76,50A1,1,0,0,0,9.4,49.72Z"/><path class="cls-1" d="M63.69,35.52H64a1,1,0,0,0,1-1v-.34a1,1,0,0,0-1-1h-.27a1,1,0,0,0-1,1v.34A1,1,0,0,0,63.69,35.52Z"/><path class="cls-1" d="M5.09,33.26H4.82a1,1,0,0,0-1,1v.34a1,1,0,0,0,1,1h.27a1,1,0,0,0,1-1v-.34A1,1,0,0,0,5.09,33.26Z"/><path class="cls-2" d="M78.56,23.75C78.56,12.08,81.73,6.82,95,6.82c11.6,0,17.55,4.64,17.55,13.38,0,6-2.08,9.36-5.8,11.67v.23c4.95,2,7.89,6,7.89,13.69,0,10.21-6,15.93-16.94,15.93H86.14a7.22,7.22,0,0,1-7.58-7.19Zm16.16,6c4.48,0,6.26-2.09,6.26-6.5,0-4.1-1.94-5.88-5.88-5.88-3.64,0-4.95,1.63-4.95,4.88v6.34a1.12,1.12,0,0,0,1.24,1.16ZM96.12,51.2c4.56,0,6.5-2.24,6.5-6.49,0-4.72-2.55-6.42-6.57-6.42H91.4a1.21,1.21,0,0,0-1.24,1.16V50.12A1.18,1.18,0,0,0,91.4,51.2Z"/><path class="cls-2" d="M148.37,21.74a1.39,1.39,0,0,1,1.55,1.55V45.17c0,12.83-4,17.32-15.85,17.32S118,58,118,45.17V23.29a1.39,1.39,0,0,1,1.55-1.55h7.88A1.39,1.39,0,0,1,129,23.29V46.72c0,4.41,1.39,5.72,5.1,5.72s4.79-1.31,4.79-5.72V23.29a1.39,1.39,0,0,1,1.54-1.55Z"/><path class="cls-2" d="M160.84,43.55c-4.4-2-7.5-4.47-7.5-11.37,0-8.45,4.9-11.21,14.69-11.21,4.56,0,9.05.53,10.9,1.24A2,2,0,0,1,180,24.6l-.78,4.64c-.16,1.08-.39,1.63-1.54,1.63-1.55,0-5.34-.7-8.74-.7-3,0-4.72.6-4.72,2.56,0,2.24,2.38,2.84,5.64,4.25l3.71,1.7c4.92,2.25,7.5,4.49,7.5,11.29,0,8.42-4.56,12.52-15.93,12.52a55.7,55.7,0,0,1-9.74-1A2.06,2.06,0,0,1,153.8,59l.69-5.57a1.08,1.08,0,0,1,1.16-1.08c1.24,0,4.18.7,8.82.7s5.8-1.09,5.8-2.94c0-2-1.31-2.63-4.33-4.1Z"/><path class="cls-2" d="M200.17,35.81c0-8.58,2.24-14.85,16.24-14.85s16.08,6.26,16.08,14.85V60.48a1.19,1.19,0,0,1-1.32,1.23h-8.35c-1.08,0-1.32-.62-1.32-1.23V36.66c0-4.71-1.54-5.64-5.1-5.64s-5.26.93-5.26,5.64V60.48a1.14,1.14,0,0,1-1.24,1.23h-8.5a1.14,1.14,0,0,1-1.24-1.23Z"/><path class="cls-2" d="M266.41,56.92a3,3,0,0,1-1.55,3.64c-1.93,1.08-6.34,1.78-11.44,1.78C241.51,62.34,236,57,236,41.61,236,26,242,21,252.88,21c10.2,0,15.15,5.8,15.15,16.24v3.4c0,4.33-1.86,6-6,6H247.62c-.46,0-.62.15-.62.54v.23c0,3.4,1.7,5.33,7.27,5.33,4.87,0,8-1.24,9.36-1.24a1.66,1.66,0,0,1,1.7,1.47Zm-9-18.56c.62,0,.78-.31.78-.78,0-5.18-1.86-7-5.18-7-3.79,0-6,1.78-6,7,0,.54.23.78.77.78Z"/><path class="cls-2" d="M278.4,43.55c-4.4-2-7.51-4.47-7.51-11.37,0-8.45,4.9-11.21,14.69-11.21,4.56,0,9,.53,10.9,1.24a2,2,0,0,1,1.08,2.4l-.77,4.64c-.15,1.08-.38,1.63-1.55,1.63-1.55,0-5.34-.7-8.74-.7-3,0-4.72.6-4.72,2.56,0,2.24,2.39,2.84,5.64,4.25l3.71,1.7c4.91,2.25,7.5,4.49,7.5,11.29,0,8.42-4.56,12.52-15.93,12.52a55.77,55.77,0,0,1-9.74-1A2.07,2.07,0,0,1,271.36,59l.7-5.57a1.08,1.08,0,0,1,1.16-1.08c1.24,0,4.18.7,8.82.7s5.8-1.09,5.8-2.94c0-2-1.31-2.63-4.33-4.1Z"/><path class="cls-2" d="M307.73,43.55c-4.4-2-7.5-4.47-7.5-11.37,0-8.45,4.9-11.21,14.7-11.21,4.56,0,9.05.53,10.9,1.24a2,2,0,0,1,1.09,2.4l-.77,4.64c-.16,1.08-.39,1.63-1.55,1.63-1.55,0-5.33-.7-8.73-.7-3,0-4.72.6-4.72,2.56,0,2.24,2.39,2.84,5.64,4.25l3.71,1.7C325.4,40.92,328,43.16,328,50c0,8.42-4.56,12.52-15.93,12.52a55.59,55.59,0,0,1-9.74-1A2.06,2.06,0,0,1,300.7,59l.7-5.57a1.07,1.07,0,0,1,1.16-1.08c1.24,0,4.18.7,8.81.7s5.8-1.09,5.8-2.94c0-2-1.3-2.63-4.33-4.1Z"/><path class="cls-2" d="M190.07,21H190s-5.64,0-5.64,5.79V41.93s0,0,0,.07V60.28c0,1,.47,1.44,1.33,1.44h8.46c1.09,0,1.56-.43,1.56-1.44V26.76S195.7,21,190.07,21Z"/><path class="cls-2" d="M190.9,6.35h-1.74s-4.79,0-4.81,4.94l0,1.33s0,5,4.79,5h1.74a4.77,4.77,0,0,0,4.81-5V11.29S195.7,6.35,190.9,6.35Z"/><path class="cls-2" d="M486,71.47a.12.12,0,0,1,.13.14v3.65a1.61,1.61,0,0,1-.44,1.19l-2.2,2.68a1,1,0,0,0-.24.66v4.85a.12.12,0,0,1-.13.13h-.72a.12.12,0,0,1-.13-.13V79.79a.9.9,0,0,0-.26-.66l-2.36-2.68a1.53,1.53,0,0,1-.41-1.19V71.61a.13.13,0,0,1,.13-.14h.74a.13.13,0,0,1,.13.14v3.62a.81.81,0,0,0,.22.61l2.13,2.53c.13.15.24.14.35,0l2-2.52a1,1,0,0,0,.23-.64V71.61a.12.12,0,0,1,.12-.14Z"/><path class="cls-2" d="M496.68,80c0,3.74-.7,5-3.28,5s-3.29-1.21-3.29-5,.7-4.91,3.29-4.91S496.68,76.23,496.68,80Zm-5.61,0c0,3.27.54,4.07,2.33,4.07s2.32-.8,2.32-4.07-.53-4-2.32-4S491.07,76.7,491.07,80Z"/><path class="cls-2" d="M507.09,75.2a.14.14,0,0,1,.16.16v6.06c0,2.68-.69,3.5-3.06,3.5s-3.08-.82-3.08-3.5V75.36a.15.15,0,0,1,.16-.16h.63a.15.15,0,0,1,.16.16v6.2c0,2.06.56,2.47,2.13,2.47s2.11-.41,2.11-2.47v-6.2a.15.15,0,0,1,.16-.16Z"/><path class="cls-2" d="M512.07,77.28c0-1.68.59-2.21,2.21-2.21a6.57,6.57,0,0,1,1.47.16c.25.06.28.13.25.36l0,.32c0,.1-.05.16-.16.16S515,76,514.46,76c-1,0-1.44.22-1.44,1.35v7.33a.14.14,0,0,1-.14.14h-.66a.14.14,0,0,1-.14-.14Z"/><path class="cls-2" d="M526,83.9a.13.13,0,0,1,.14-.14,16.23,16.23,0,0,0,2.5.2c2.28,0,2.8-.83,2.8-2.49s-.74-2.11-2.65-3.14c-2.08-1.11-3-1.65-3-3.81s.91-3.2,3.58-3.2a17.71,17.71,0,0,1,2.53.16c.15,0,.24.1.23.26l0,.59a.13.13,0,0,1-.14.13,19,19,0,0,0-2.46-.2c-2,0-2.64.62-2.64,2.34s.73,1.82,2.74,3c2.2,1.24,2.93,1.84,2.93,3.91,0,2.31-.95,3.42-3.67,3.42a14.58,14.58,0,0,1-2.63-.22c-.24-.06-.26-.14-.25-.35Z"/><path class="cls-2" d="M543.06,75.2a.15.15,0,0,1,.16.16v6.06c0,2.68-.69,3.5-3.06,3.5s-3.08-.82-3.08-3.5V75.36a.15.15,0,0,1,.16-.16h.63a.15.15,0,0,1,.16.16v6.2c0,2.06.56,2.47,2.13,2.47s2.11-.41,2.11-2.47v-6.2a.15.15,0,0,1,.16-.16Z"/><path class="cls-2" d="M553.12,84.42c0,.2,0,.28-.24.33a8.82,8.82,0,0,1-1.75.17c-2.55,0-3.29-1.39-3.29-5s.73-4.9,3.19-4.9a7.65,7.65,0,0,1,1.85.2c.2.05.26.12.24.33l0,.38c0,.09,0,.15-.14.15a15.2,15.2,0,0,0-1.73-.18c-1.93,0-2.38,1-2.38,4s.47,4.06,2.49,4.06c.65,0,1.48-.13,1.62-.13s.13.05.14.14Z"/><path class="cls-2" d="M562.66,84.42c0,.2,0,.28-.24.33a8.8,8.8,0,0,1-1.75.17c-2.55,0-3.29-1.39-3.29-5s.73-4.9,3.19-4.9a7.65,7.65,0,0,1,1.85.2c.2.05.26.12.24.33l0,.38c0,.09,0,.15-.14.15a15.26,15.26,0,0,0-1.73-.18c-1.93,0-2.39,1-2.39,4s.47,4.06,2.5,4.06c.65,0,1.48-.13,1.63-.13s.13.05.14.14Z"/><path class="cls-2" d="M572.56,84.19a.33.33,0,0,1-.23.36,6.41,6.41,0,0,1-2.23.36c-2.55,0-3.55-.88-3.55-4.94s1-4.91,3.28-4.91,3,1,3,4.36v.33c0,.37-.19.53-.55.53h-4.72c-.05,0-.08,0-.08.07v.21c0,3,.79,3.49,2.69,3.49a10.66,10.66,0,0,0,2.15-.33.15.15,0,0,1,.17.15Zm-.68-4.68c.06,0,.07,0,.07-.07,0-3.08-.72-3.52-2.12-3.52-1.61,0-2.34.5-2.34,3.51a.08.08,0,0,0,.09.09Z"/><path class="cls-2" d="M578.54,79.8c-1.1-.54-1.81-1-1.81-2.57s1.05-2.18,2.91-2.18a11.82,11.82,0,0,1,2.17.17c.19,0,.22.12.21.29l0,.35c0,.1,0,.16-.16.16s-1.21-.14-2.09-.14c-1.2,0-2.06.24-2.06,1.37s.44,1.34,1.52,1.86l1.18.57c1.41.68,2,1.18,2,2.46,0,1.71-.77,2.77-3.11,2.77a11.48,11.48,0,0,1-2.11-.16c-.22,0-.25-.13-.24-.3l0-.4a.12.12,0,0,1,.14-.13c.2,0,1.05.14,2.14.14,1.67,0,2.21-.73,2.21-1.79s-.4-1.24-1.61-1.85Z"/><path class="cls-2" d="M588,79.8c-1.1-.54-1.81-1-1.81-2.57s1-2.18,2.91-2.18a11.82,11.82,0,0,1,2.18.17c.19,0,.22.12.21.29l0,.35c0,.1,0,.16-.16.16s-1.21-.14-2.09-.14c-1.2,0-2.06.24-2.06,1.37s.44,1.34,1.52,1.86l1.18.57c1.41.68,2,1.18,2,2.46,0,1.71-.77,2.77-3.11,2.77a11.51,11.51,0,0,1-2.11-.16c-.21,0-.24-.13-.24-.3l0-.4c0-.08,0-.13.14-.13s1.06.14,2.14.14c1.67,0,2.21-.73,2.21-1.79s-.4-1.24-1.61-1.85Z"/><path class="cls-2" d="M333.45,83.9a.13.13,0,0,1,.14-.14,16.19,16.19,0,0,0,2.5.2c2.28,0,2.8-.83,2.8-2.49s-.74-2.11-2.65-3.14c-2.08-1.11-3-1.65-3-3.81s.91-3.2,3.58-3.2a17.73,17.73,0,0,1,2.53.16c.15,0,.24.1.23.26l0,.59a.13.13,0,0,1-.15.13,18.94,18.94,0,0,0-2.46-.2c-2,0-2.65.62-2.65,2.34s.73,1.82,2.75,3c2.21,1.24,2.93,1.84,2.93,3.91,0,2.31-.95,3.42-3.67,3.42a14.58,14.58,0,0,1-2.63-.22c-.24-.06-.26-.14-.25-.35Z"/><path class="cls-2" d="M347.22,71.47a.14.14,0,0,1,.16.16V73.5a.14.14,0,0,1-.16.16h-.68a.15.15,0,0,1-.16-.16V71.63a.14.14,0,0,1,.16-.16Zm0,3.73a.15.15,0,0,1,.16.16v9.25a.14.14,0,0,1-.16.16h-.66c-.09,0-.14-.05-.14-.16V75.36a.15.15,0,0,1,.16-.16Z"/><path class="cls-2" d="M354.1,78.12c0-2.16.65-3,2.72-3a2.39,2.39,0,0,1,2.54,1.41c0,.07.1.07.12,0,.33-1,1.21-1.41,2.52-1.41,2.08,0,2.72.9,2.72,3v6.49c0,.11,0,.16-.16.16h-.63c-.11,0-.16,0-.16-.16V78c0-1.5-.51-2.07-1.94-2.07s-1.95.74-1.95,2.36v6.3c0,.11,0,.16-.14.16h-.65c-.11,0-.16,0-.16-.14V78.32c0-1.62-.54-2.37-1.94-2.37S355,76.53,355,78v6.59c0,.11,0,.16-.16.16h-.63c-.11,0-.16,0-.16-.16Z"/><path class="cls-2" d="M370.69,78.24c0-2,.92-3.18,3.2-3.18s3.23.94,3.23,4.76c0,4.07-1.07,5.1-3.29,5.1a3.41,3.41,0,0,1-2.13-.64.06.06,0,0,0-.06.06V88a.14.14,0,0,1-.16.16h-.63a.14.14,0,0,1-.16-.16Zm1,4.34c0,1.06.94,1.45,2,1.45,1.68,0,2.49-.51,2.49-4.21,0-3.34-.63-3.88-2.27-3.88s-2.24.78-2.24,2.41Z"/><path class="cls-2" d="M383.9,71.47a.14.14,0,0,1,.16.16v13a.15.15,0,0,1-.16.16h-.63a.14.14,0,0,1-.16-.16v-13a.14.14,0,0,1,.16-.16Z"/><path class="cls-2" d="M391.66,71.47a.14.14,0,0,1,.16.16V73.5a.14.14,0,0,1-.16.16H391a.14.14,0,0,1-.16-.16V71.63a.14.14,0,0,1,.16-.16Zm0,3.73a.15.15,0,0,1,.16.16v9.25a.14.14,0,0,1-.16.16H391a.14.14,0,0,1-.15-.16V75.36a.15.15,0,0,1,.16-.16Z"/><path class="cls-2" d="M398.82,74.25c0-2.17.57-2.82,2.29-2.82a4.83,4.83,0,0,1,1.32.15c.2.06.23.14.21.33l0,.37c0,.09,0,.15-.14.15a10.53,10.53,0,0,0-1.28-.12c-1.07,0-1.42.35-1.42,1.9v.91c0,.06.05.09.13.09H402a.15.15,0,0,1,.16.16v.53A.14.14,0,0,1,402,76H399.9a.12.12,0,0,0-.13.13v8.46a.13.13,0,0,1-.14.14H399a.14.14,0,0,1-.15-.14V76.15a.12.12,0,0,0-.12-.11h-1.18a.14.14,0,0,1-.16-.16v-.53a.15.15,0,0,1,.16-.16h1.18c.09,0,.12,0,.12-.12Z"/><path class="cls-2" d="M413,75.2a.13.13,0,0,1,.15.14v9.48c0,2.16-.56,3.39-3.19,3.39a8.68,8.68,0,0,1-2.2-.25c-.17-.05-.25-.12-.24-.3l0-.43c0-.09,0-.14.14-.14a18.15,18.15,0,0,0,2.18.23c2.06,0,2.34-1,2.34-2.49V83.24s0,0-.06,0a3.24,3.24,0,0,1-2.29.79c-2.12,0-2.89-.79-2.89-3.32V75.34a.14.14,0,0,1,.14-.14h.66a.14.14,0,0,1,.14.14v5.27c0,2.06.58,2.5,2.14,2.5,1.38,0,2.12-.67,2.12-1.48V75.34a.13.13,0,0,1,.15-.14Z"/><path class="cls-2" d="M420.6,71.47a.14.14,0,0,1,.16.16V73.5a.14.14,0,0,1-.16.16h-.68a.14.14,0,0,1-.16-.16V71.63a.14.14,0,0,1,.16-.16Zm0,3.73a.15.15,0,0,1,.16.16v9.25a.14.14,0,0,1-.16.16h-.66a.14.14,0,0,1-.15-.16V75.36a.15.15,0,0,1,.16-.16Z"/><path class="cls-2" d="M427.48,78.42c0-2.45.63-3.37,3.23-3.37s3.23.92,3.23,3.37v6.21a.13.13,0,0,1-.14.14h-.66a.13.13,0,0,1-.14-.14V78.41c0-2.08-.62-2.47-2.28-2.47s-2.29.39-2.29,2.47v6.22a.13.13,0,0,1-.14.14h-.67a.13.13,0,0,1-.14-.14Z"/><path class="cls-2" d="M445.87,83.24a2.6,2.6,0,0,1-2.45,1.15c-2,0-3.16-.95-3.16-4.74,0-3.51.91-4.6,3.2-4.6a2.94,2.94,0,0,1,2.44,1c.12.15.14.2.17,0l.12-.66a.24.24,0,0,1,.26-.17h.25a.15.15,0,0,1,.16.16v9.33c0,2.18-.59,3.5-3.37,3.5a9.46,9.46,0,0,1-2.31-.25c-.15-.05-.19-.12-.18-.3l0-.36a.16.16,0,0,1,.17-.17,21.25,21.25,0,0,0,2.23.22c2.22,0,2.48-1,2.48-2.69v-1.4Zm0-5.52c0-.94-.73-1.77-2.32-1.77s-2.37.79-2.37,3.71c0,3.12.95,3.85,2.32,3.85a2.28,2.28,0,0,0,1.92-.76,2.81,2.81,0,0,0,.45-1.92Z"/><path class="cls-1" d="M579.92,13.29c1.54,0,2,.77,2.23,2.08l.85,5c.23,1.31.77,1.54,2,1.54h6.39a1.38,1.38,0,0,1,1.54,1.54v6.47a1.38,1.38,0,0,1-1.54,1.54h-7a.85.85,0,0,0-.92.92V48c0,2.08.69,4.16,4.93,4.16,2.54,0,3.16-.38,4.46-.38.62,0,1.08.54,1.15,1.39l.77,5.85c.15,1.23-.34,1.92-1.62,2.39a18.74,18.74,0,0,1-6.39,1.08c-11.63,0-14.24-4.85-14.24-13.24V14.6a1.25,1.25,0,0,1,1.31-1.31Z"/><path class="cls-1" d="M331.58,23.92c0-11.62,3.16-16.86,16.4-16.86,11.55,0,17.48,4.62,17.48,13.32,0,6-2.08,9.32-5.77,11.63v.23c4.93,2,7.85,5.93,7.85,13.63,0,10.16-6,15.86-16.86,15.86H339.12a7.19,7.19,0,0,1-7.54-7.16Zm16.09,5.93c4.47,0,6.24-2.08,6.24-6.47,0-4.08-1.92-5.85-5.85-5.85-3.62,0-4.93,1.62-4.93,4.85v6.31a1.11,1.11,0,0,0,1.23,1.16Zm1.39,21.4c4.54,0,6.47-2.23,6.47-6.47,0-4.7-2.54-6.39-6.54-6.39h-4.62a1.2,1.2,0,0,0-1.23,1.15V50.17a1.18,1.18,0,0,0,1.23,1.08Z"/><path class="cls-1" d="M380.31,7.83a1.38,1.38,0,0,1,1.54,1.54V60.18a1.38,1.38,0,0,1-1.54,1.54h-7.78A1.38,1.38,0,0,1,371,60.18V9.37a1.38,1.38,0,0,1,1.54-1.54Z"/><path class="cls-1" d="M416.73,21.92a1.38,1.38,0,0,1,1.54,1.54V45.24c0,12.78-4,17.25-15.78,17.25s-16-4.47-16-17.25V23.46A1.38,1.38,0,0,1,388,21.92h7.85a1.38,1.38,0,0,1,1.54,1.54V46.79c0,4.39,1.39,5.7,5.08,5.7s4.77-1.31,4.77-5.7V23.46a1.38,1.38,0,0,1,1.54-1.54Z"/><path class="cls-1" d="M452.46,56.95a3,3,0,0,1-1.54,3.62c-1.92,1.08-6.31,1.77-11.39,1.77-11.86,0-17.32-5.31-17.32-20.63,0-15.55,5.93-20.56,16.79-20.56,10.16,0,15.09,5.78,15.09,16.17V40.7c0,4.31-1.85,6-6,6H433.75c-.46,0-.62.15-.62.54v.23c0,3.39,1.69,5.31,7.24,5.31,4.85,0,7.93-1.23,9.32-1.23a1.65,1.65,0,0,1,1.7,1.46Zm-8.93-18.48c.62,0,.77-.31.77-.77,0-5.16-1.85-7-5.16-7-3.77,0-6,1.77-6,7,0,.54.23.77.77.77Z"/><path class="cls-1" d="M494.92,33.77c0-9.7,3.46-12.63,11-12.63a30.24,30.24,0,0,1,8.86,1.08c1.93.59,2.46,1.39,1.93,3.62l-.69,4c-.15,1-.69,1.62-1.54,1.62-1.31,0-3.16-.39-5.23-.39-2.77,0-3.39,1.08-3.39,4.08V60.49a1.24,1.24,0,0,1-1.31,1.23h-8.32a1.24,1.24,0,0,1-1.31-1.23Z"/><path class="cls-1" d="M535.73,35.93c0-8.55,2.23-14.78,16.17-14.78s16,6.24,16,14.78V60.49a1.19,1.19,0,0,1-1.31,1.23h-8.31c-1.08,0-1.31-.62-1.31-1.23V36.78c0-4.7-1.54-5.62-5.08-5.62s-5.24.92-5.24,5.62V60.49a1.13,1.13,0,0,1-1.23,1.23H537a1.13,1.13,0,0,1-1.23-1.23Z"/><path class="cls-1" d="M531,26.45s0-5.71-5.54-5.7h-.08s-5.54,0-5.54,5.7V60.18c0,1.08.46,1.54,1.31,1.54h8.32c1.08,0,1.54-.46,1.54-1.54V26.86h0Z"/><path class="cls-1" d="M526.23,6.38h-1.71s-4.71,0-4.73,4.86l0,1.3s0,4.87,4.71,4.87h1.71A4.69,4.69,0,0,0,531,12.54v-1.3S531,6.38,526.23,6.38Z"/><path class="cls-1" d="M474.43,21.15c-11.46.08-16.63,5.9-16.63,16v29s0,5.59,5.43,5.58h.08s5.43,0,5.43-5.58v-4.2a.53.53,0,0,1,.57-.59,23.37,23.37,0,0,0,6.8,1.14c9.73,0,15-7.43,15-20.79C491.07,27.62,486.84,21.06,474.43,21.15Zm-1.09,31.34c-3.67,0-4.6-.74-4.6-3.56V39.16c0-5.93,1.28-8,5.58-8s5.58,1.69,5.58,10.55C479.9,50.17,478.31,52.48,473.34,52.48Z"/><path class="cls-1" d="M464.11,74.13h-1.67a4.59,4.59,0,0,0-4.63,4.77v1.28s0,4.76,4.63,4.76h1.67s4.62,0,4.63-4.76l0-1.28S468.72,74.13,464.11,74.13Z"/></g></g></svg>