<?xml version="1.0" encoding="utf-8"?>
<!-- Generator: Adobe Illustrator 18.1.1, SVG Export Plug-In . SVG Version: 6.00 Build 0)  -->
<!DOCTYPE svg PUBLIC "-//W3C//DTD SVG 1.1//EN" "http://www.w3.org/Graphics/SVG/1.1/DTD/svg11.dtd">
<svg version="1.1" id="Layer_1" xmlns="http://www.w3.org/2000/svg" xmlns:xlink="http://www.w3.org/1999/xlink" x="0px" y="0px"
	 viewBox="0 0 164.9 164.9" enable-background="new 0 0 164.9 164.9" xml:space="preserve">
<g>
	<defs>
		<rect id="SVGID_1_" width="164.9" height="164.9"/>
	</defs>
	<clipPath id="SVGID_2_">
		<use xlink:href="#SVGID_1_"  overflow="visible"/>
	</clipPath>
	<path clip-path="url(#SVGID_2_)" fill="#00BCDC" d="M113.9,40.2l1.4-2.1c0,0,0.7-1,0.5-2.1c0.6-0.1,1.2-0.4,1.7-1.2l2-3
		c0,0,1.5-2.3-0.7-3.8l0,0c0,0-2.2-1.5-3.8,0.8l-2,3c0,0-0.6,1-0.5,2.1c-0.6,0.1-1.2,0.4-1.7,1.2l-1.4,2.1c0,0-1.5,2.3,0.7,3.8
		l0.1,0C110.1,41.1,112.3,42.5,113.9,40.2"/>
	<path clip-path="url(#SVGID_2_)" fill="#00BCDC" d="M51,124.6l-1.4,2.1c0,0-0.6,1-0.5,2.1c-0.6,0.1-1.2,0.4-1.7,1.2l-2,3
		c0,0-1.5,2.3,0.7,3.8l0,0c0,0,2.2,1.5,3.8-0.8l2-3c0,0,0.7-1,0.5-2.1c0.6-0.1,1.2-0.4,1.7-1.2l1.4-2.1c0,0,1.5-2.3-0.7-3.8l0,0
		C54.7,123.8,52.5,122.3,51,124.6"/>
	<path clip-path="url(#SVGID_2_)" fill="#00BCDC" d="M132,64.8l2.4-1c0,0,1.1-0.5,1.6-1.5c0.5,0.2,1.3,0.3,2.1-0.1l3.4-1.4
		c0,0,2.6-1.1,1.5-3.5l0,0c0,0-1-2.5-3.6-1.4l-3.4,1.4c0,0-1.1,0.4-1.6,1.5c-0.5-0.2-1.2-0.3-2.1,0.1l-2.4,1c0,0-2.6,1.1-1.5,3.5v0
		C128.4,63.4,129.5,65.9,132,64.8"/>
	<path clip-path="url(#SVGID_2_)" fill="#00BCDC" d="M32.9,100l-2.4,1c0,0-1.1,0.4-1.6,1.5c-0.6-0.2-1.3-0.3-2.1,0.1l-3.4,1.4
		c0,0-2.6,1.1-1.5,3.6l0,0c0,0,1,2.5,3.6,1.4l3.4-1.4c0,0,1.1-0.4,1.6-1.5c0.5,0.2,1.3,0.3,2.1-0.1l2.4-1c0,0,2.6-1.1,1.5-3.5l0-0.1
		C36.4,101.4,35.4,99,32.9,100"/>
	<path clip-path="url(#SVGID_2_)" fill="#00BCDC" d="M133.4,95.3l2.5,0.5c0,0,1.2,0.2,2.1-0.4c0.3,0.5,0.9,0.9,1.8,1.1l3.6,0.7
		c0,0,2.7,0.5,3.2-2.1l0,0c0,0,0.5-2.6-2.2-3.2l-3.6-0.7c0,0-1.2-0.2-2.1,0.4c-0.3-0.5-0.9-0.9-1.8-1.1l-2.5-0.5
		c0,0-2.7-0.5-3.2,2.1l0,0C131.2,92.2,130.7,94.8,133.4,95.3"/>
	<path clip-path="url(#SVGID_2_)" fill="#00BCDC" d="M31.4,69.5L28.9,69c0,0-1.2-0.2-2.1,0.4c-0.3-0.5-0.9-0.9-1.8-1.1l-3.6-0.7
		c0,0-2.7-0.5-3.3,2.1l0,0c0,0-0.5,2.6,2.2,3.2l3.6,0.7c0,0,1.2,0.2,2.1-0.4c0.3,0.5,0.9,0.9,1.8,1.1l2.5,0.5c0,0,2.7,0.5,3.2-2.1
		l0,0C33.6,72.7,34.1,70.1,31.4,69.5"/>
	<path clip-path="url(#SVGID_2_)" fill="#00BCDC" d="M47.2,43.4l-1.8-1.8c0,0-0.8-0.8-2-0.9c0-0.6-0.2-1.3-0.9-1.9L40,36.1
		c0,0-2-2-3.9-0.1l0,0c0,0-1.9,1.9,0.1,3.9l2.6,2.6c0,0,0.8,0.8,1.9,0.9c0,0.6,0.2,1.3,0.9,1.9l1.8,1.8c0,0,2,2,3.9,0.1l0,0
		C47.3,47.2,49.2,45.3,47.2,43.4"/>
	<path clip-path="url(#SVGID_2_)" fill="#00BCDC" d="M117.7,121.5l1.8,1.8c0,0,0.8,0.8,2,0.9c0,0.6,0.2,1.3,0.9,2l2.6,2.6
		c0,0,2,2,3.9,0.1l0,0c0,0,1.9-1.9,0-3.9l-2.6-2.6c0,0-0.8-0.8-2-0.9c0-0.6-0.2-1.3-0.9-2l-1.8-1.8c0,0-2-2-3.9-0.1l0,0
		C117.6,117.6,115.7,119.5,117.7,121.5"/>
	<path clip-path="url(#SVGID_2_)" fill="#00BCDC" d="M85.2,29.9l0-2.6c0,0,0-1.2-0.7-2c0.4-0.4,0.7-1,0.8-2v-3.6c0,0,0-2.8-2.7-2.8
		l0,0c0,0-2.7,0-2.7,2.8l0,3.7c0,0,0,1.2,0.8,2c-0.4,0.4-0.8,1-0.8,2v2.6c0,0,0,2.8,2.7,2.8h0C82.4,32.6,85.2,32.6,85.2,29.9"/>
	<path clip-path="url(#SVGID_2_)" fill="#00BCDC" d="M79.7,135v2.6c0,0,0,1.2,0.8,2c-0.4,0.4-0.8,1-0.8,2l0,3.6c0,0,0,2.8,2.7,2.8h0
		c0,0,2.7,0,2.7-2.8v-3.6c0,0,0-1.2-0.8-2c0.4-0.4,0.7-1,0.8-2V135c0,0,0-2.8-2.7-2.8h0C82.4,132.2,79.7,132.2,79.7,135"/>
	<path clip-path="url(#SVGID_2_)" fill="#00BCDC" d="M74.8,30.4l-0.5-2.5c0,0-0.2-1.2-1.1-1.8c0.3-0.5,0.5-1.2,0.3-2.1l-0.7-3.6
		c0,0-0.5-2.7-3.2-2.2l0,0c0,0-2.6,0.5-2.1,3.2l0.7,3.6c0,0,0.2,1.2,1.1,1.8c-0.3,0.5-0.5,1.2-0.4,2.1l0.5,2.5c0,0,0.5,2.7,3.2,2.2
		l0.1,0C72.7,33.6,75.4,33.1,74.8,30.4"/>
	<path clip-path="url(#SVGID_2_)" fill="#00BCDC" d="M90,134.5l0.5,2.5c0,0,0.2,1.1,1.1,1.8c-0.3,0.5-0.6,1.2-0.3,2.1l0.7,3.6
		c0,0,0.5,2.7,3.2,2.2h0c0,0,2.6-0.5,2.1-3.3l-0.7-3.6c0,0-0.2-1.2-1.1-1.8c0.3-0.5,0.5-1.2,0.3-2.1l-0.5-2.5c0,0-0.5-2.7-3.2-2.2
		h-0.1C92.1,131.2,89.5,131.8,90,134.5"/>
	<path clip-path="url(#SVGID_2_)" fill="#00BCDC" d="M129.9,105l2.4,1c0,0,1.1,0.4,2.1,0.1c0.2,0.5,0.7,1.1,1.6,1.5l3.4,1.4
		c0,0,2.6,1.1,3.6-1.4l0,0c0,0,1-2.5-1.5-3.6l-3.4-1.4c0,0-1.1-0.4-2.1-0.1c-0.2-0.6-0.7-1.1-1.6-1.5l-2.4-1c0,0-2.6-1.1-3.6,1.4
		l0,0.1C128.4,101.5,127.4,104,129.9,105"/>
	<path clip-path="url(#SVGID_2_)" fill="#00BCDC" d="M34.9,59.8l-2.4-1c0,0-1.1-0.4-2.1-0.1c-0.2-0.6-0.7-1.1-1.6-1.5l-3.4-1.4
		c0,0-2.6-1.1-3.6,1.4l0,0c0,0-1,2.5,1.5,3.5l3.4,1.4c0,0,1.1,0.5,2.1,0.1c0.2,0.5,0.7,1.1,1.6,1.5l2.4,1c0,0,2.6,1.1,3.6-1.4l0,0
		C36.4,63.4,37.5,60.9,34.9,59.8"/>
	<path clip-path="url(#SVGID_2_)" fill="#00BCDC" d="M95.3,31.4l0.5-2.5c0,0,0.2-1.1-0.3-2.1c0.5-0.3,0.9-0.9,1.1-1.8l0.7-3.6
		c0,0,0.5-2.7-2.1-3.3l-0.1,0c0,0-2.6-0.5-3.2,2.2l-0.7,3.6c0,0-0.2,1.2,0.3,2.1c-0.5,0.3-1,0.9-1.1,1.8L90,30.4
		c0,0-0.5,2.7,2.1,3.2l0,0C92.2,33.6,94.8,34.1,95.3,31.4"/>
	<path clip-path="url(#SVGID_2_)" fill="#00BCDC" d="M69.5,133.4L69,136c0,0-0.2,1.2,0.4,2.1c-0.5,0.3-0.9,0.9-1.1,1.8l-0.7,3.6
		c0,0-0.5,2.7,2.1,3.3h0.1c0,0,2.6,0.5,3.2-2.2l0.7-3.6c0,0,0.2-1.2-0.3-2.1c0.5-0.3,1-0.9,1.1-1.8l0.5-2.5c0,0,0.5-2.7-2.1-3.3
		h-0.1C72.7,131.2,70.1,130.7,69.5,133.4"/>
	<path clip-path="url(#SVGID_2_)" fill="#00BCDC" d="M109.4,127.6l1.4,2.1c0,0,0.7,1,1.7,1.2c-0.1,0.6-0.1,1.3,0.5,2.1l2,3
		c0,0,1.5,2.3,3.8,0.8l0.1,0c0,0,2.2-1.5,0.7-3.8l-2-3c0,0-0.7-1-1.7-1.2c0.1-0.6,0.1-1.3-0.5-2.1l-1.4-2.1c0,0-1.5-2.3-3.8-0.8l0,0
		C110.1,123.8,107.8,125.3,109.4,127.6"/>
	<path clip-path="url(#SVGID_2_)" fill="#00BCDC" d="M55.5,37.2l-1.4-2.1c0,0-0.7-1-1.7-1.2c0.1-0.6,0.1-1.3-0.5-2.1l-2-3
		c0,0-1.5-2.3-3.8-0.8l-0.1,0c0,0-2.2,1.5-0.7,3.8l2,3c0,0,0.7,1,1.8,1.2c-0.1,0.6-0.1,1.3,0.5,2.1l1.4,2.1c0,0,1.5,2.3,3.8,0.8l0,0
		C54.8,41,57,39.5,55.5,37.2"/>
	<path clip-path="url(#SVGID_2_)" fill="#00BCDC" d="M121.5,47.2l1.8-1.8c0,0,0.8-0.8,0.9-1.9c0.6,0,1.3-0.2,2-0.9l2.6-2.6
		c0,0,1.9-2,0-3.9l0,0c0,0-1.9-1.9-3.9,0.1l-2.6,2.6c0,0-0.8,0.8-0.9,1.9c-0.6,0-1.3,0.2-2,0.9l-1.8,1.8c0,0-2,2,0,3.9l0,0
		C117.6,47.2,119.6,49.2,121.5,47.2"/>
	<path clip-path="url(#SVGID_2_)" fill="#00BCDC" d="M43.4,117.7l-1.8,1.8c0,0-0.8,0.9-0.9,2c-0.6,0-1.3,0.2-1.9,0.9l-2.6,2.6
		c0,0-2,2,0,3.9l0,0c0,0,1.9,1.9,3.9-0.1l2.6-2.6c0,0,0.8-0.8,0.9-2c0.6,0,1.3-0.2,2-0.9l1.8-1.8c0,0,2-2,0.1-3.9l0,0
		C47.2,117.6,45.3,115.7,43.4,117.7"/>
	<path clip-path="url(#SVGID_2_)" fill="#00BCDC" d="M134.5,74.8l2.5-0.5c0,0,1.2-0.2,1.8-1.1c0.5,0.3,1.2,0.5,2.1,0.4l3.6-0.7
		c0,0,2.7-0.5,2.2-3.2l0,0c0,0-0.5-2.6-3.2-2.1l-3.6,0.7c0,0-1.2,0.2-1.8,1.1c-0.5-0.3-1.2-0.6-2.1-0.4l-2.5,0.5
		c0,0-2.7,0.5-2.2,3.2l0,0C131.3,72.7,131.8,75.4,134.5,74.8"/>
	<path clip-path="url(#SVGID_2_)" fill="#00BCDC" d="M30.4,90l-2.5,0.5c0,0-1.2,0.2-1.8,1.1c-0.5-0.3-1.2-0.6-2.1-0.4L20.3,92
		c0,0-2.7,0.5-2.2,3.2v0c0,0,0.5,2.7,3.3,2.1l3.6-0.7c0,0,1.2-0.2,1.8-1.1c0.5,0.3,1.2,0.5,2.1,0.4l2.5-0.5c0,0,2.7-0.5,2.2-3.2l0,0
		C33.6,92.1,33.1,89.5,30.4,90"/>
	<path clip-path="url(#SVGID_2_)" fill="#00BCDC" d="M124.6,113.9l2.1,1.4c0,0,1,0.6,2.1,0.5c0.1,0.6,0.4,1.2,1.2,1.7l3,2
		c0,0,2.3,1.5,3.8-0.7l0,0c0,0,1.5-2.2-0.8-3.8l-3-2c0,0-1-0.6-2.1-0.5c-0.1-0.6-0.4-1.2-1.2-1.7l-2.1-1.4c0,0-2.3-1.5-3.8,0.7
		l0,0.1C123.8,110.1,122.3,112.3,124.6,113.9"/>
	<path clip-path="url(#SVGID_2_)" fill="#00BCDC" d="M40.2,51l-2.1-1.4c0,0-1-0.6-2.1-0.5c-0.1-0.6-0.5-1.2-1.3-1.7l-3-2
		c0,0-2.3-1.5-3.8,0.7l0,0c0,0-1.5,2.2,0.8,3.8l3,2c0,0,1,0.7,2.1,0.5c0.1,0.6,0.5,1.2,1.2,1.7l2.1,1.4c0,0,2.3,1.5,3.8-0.7l0,0
		C41.1,54.8,42.6,52.5,40.2,51"/>
	<path clip-path="url(#SVGID_2_)" fill="#00BCDC" d="M105.1,34.9l1-2.4c0,0,0.4-1.1,0.1-2.1c0.6-0.2,1.1-0.7,1.5-1.6l1.4-3.4
		c0,0,1-2.5-1.4-3.6l0,0c0,0-2.5-1-3.6,1.5l-1.4,3.4c0,0-0.4,1.1-0.1,2.1c-0.6,0.2-1.1,0.7-1.5,1.6l-1,2.4c0,0-1.1,2.6,1.4,3.6l0,0
		C101.5,36.5,104,37.5,105.1,34.9"/>
	<path clip-path="url(#SVGID_2_)" fill="#00BCDC" d="M59.8,129.9l-1,2.4c0,0-0.5,1.1-0.1,2.1c-0.6,0.2-1.1,0.7-1.5,1.6l-1.4,3.4
		c0,0-1.1,2.6,1.4,3.6l0,0c0,0,2.5,1,3.6-1.5l1.4-3.4c0,0,0.4-1.1,0.1-2.1c0.6-0.2,1.1-0.7,1.5-1.6l1-2.4c0,0,1.1-2.6-1.4-3.6l0,0
		C63.4,128.4,60.9,127.4,59.8,129.9"/>
	<path clip-path="url(#SVGID_2_)" fill="#00BCDC" d="M100,132l1,2.4c0,0,0.5,1.1,1.5,1.6c-0.2,0.5-0.3,1.2,0.1,2.1l1.4,3.4
		c0,0,1.1,2.6,3.6,1.5l0.1,0c0,0,2.5-1,1.4-3.6l-1.4-3.4c0,0-0.4-1.1-1.5-1.6c0.2-0.6,0.3-1.2-0.1-2.2l-1-2.4c0,0-1.1-2.5-3.6-1.5
		l0,0C101.5,128.4,99,129.4,100,132"/>
	<path clip-path="url(#SVGID_2_)" fill="#00BCDC" d="M64.8,32.9l-1-2.4c0,0-0.5-1.1-1.5-1.6c0.2-0.6,0.3-1.3-0.1-2.2l-1.4-3.4
		c0,0-1.1-2.6-3.5-1.5l0,0c0,0-2.5,1-1.4,3.6l1.4,3.4c0,0,0.5,1.1,1.5,1.6c-0.2,0.5-0.3,1.3,0.1,2.1l1,2.4c0,0,1.1,2.6,3.6,1.5l0,0
		C63.4,36.4,65.9,35.4,64.8,32.9"/>
	<path clip-path="url(#SVGID_2_)" fill="#00BCDC" d="M127.6,55.5l2.1-1.4c0,0,1-0.7,1.2-1.8c0.6,0.1,1.3,0.1,2.1-0.5l3-2
		c0,0,2.3-1.5,0.8-3.8l0,0c0,0-1.5-2.2-3.8-0.7l-3,2c0,0-1,0.7-1.2,1.8c-0.6-0.1-1.3-0.1-2.1,0.5l-2.2,1.4c0,0-2.3,1.5-0.8,3.8l0,0
		C123.8,54.8,125.3,57,127.6,55.5"/>
	<path clip-path="url(#SVGID_2_)" fill="#00BCDC" d="M37.2,109.4l-2.1,1.4c0,0-1,0.7-1.2,1.8c-0.6-0.1-1.3-0.1-2.1,0.5l-3,2
		c0,0-2.3,1.5-0.8,3.8l0,0c0,0,1.5,2.3,3.8,0.7l3-2c0,0,1-0.7,1.3-1.7c0.6,0.1,1.3,0.1,2.1-0.5l2.1-1.4c0,0,2.3-1.6,0.8-3.8l0-0.1
		C41,110.1,39.5,107.8,37.2,109.4"/>
	<path clip-path="url(#SVGID_2_)" fill="#00BCDC" d="M135,85.1h2.6c0,0,1.2,0,2-0.8c0.4,0.4,1,0.8,2,0.8h3.6c0,0,2.8,0,2.8-2.7l0,0
		c0,0,0-2.7-2.8-2.7l-3.7,0c0,0-1.2,0-2,0.8c-0.4-0.4-1-0.8-2-0.8H135c0,0-2.8,0-2.8,2.7v0C132.2,82.4,132.2,85.1,135,85.1"/>
	<path clip-path="url(#SVGID_2_)" fill="#00BCDC" d="M29.9,79.7l-2.6,0c0,0-1.2,0-2,0.8c-0.4-0.4-1-0.8-2-0.8l-3.7,0
		c0,0-2.8,0-2.8,2.7v0c0,0,0,2.7,2.8,2.7h3.6c0,0,1.2,0,2-0.8c0.4,0.4,1,0.8,2,0.8h2.6c0,0,2.8,0,2.8-2.7l0,0
		C32.7,82.4,32.7,79.7,29.9,79.7"/>
	<path clip-path="url(#SVGID_2_)" fill="#00BCDC" d="M108.9,47.7l0.3-0.5c0,0,1.3-2-0.6-3.3l-0.7-0.5c0,0-1.9-1.3-3.2,0.7l-0.3,0.5
		c0,0-1.3,2,0.6,3.3l0.7,0.4C105.7,48.4,107.6,49.6,108.9,47.7"/>
	<path clip-path="url(#SVGID_2_)" fill="#00BCDC" d="M55.9,117.2l-0.4,0.5c0,0-1.3,2,0.6,3.3l0.7,0.5c0,0,1.9,1.3,3.2-0.7l0.4-0.5
		c0,0,1.3-2-0.6-3.3l-0.7-0.5C59.2,116.5,57.3,115.2,55.9,117.2"/>
	<path clip-path="url(#SVGID_2_)" fill="#00BCDC" d="M123.8,68.2l0.6-0.2c0,0,2.2-0.9,1.3-3l-0.3-0.8c0,0-0.9-2.1-3.1-1.2l-0.6,0.2
		c0,0-2.2,0.9-1.3,3l0.3,0.8C120.7,67,121.6,69.2,123.8,68.2"/>
	<path clip-path="url(#SVGID_2_)" fill="#00BCDC" d="M41.1,96.6l-0.6,0.3c0,0-2.2,0.9-1.3,3.1l0.3,0.7c0,0,0.9,2.1,3.1,1.2l0.6-0.2
		c0,0,2.2-0.9,1.3-3l-0.3-0.8C44.2,97.8,43.3,95.7,41.1,96.6"/>
	<path clip-path="url(#SVGID_2_)" fill="#00BCDC" d="M124.7,93.6l0.6,0.1c0,0,2.3,0.5,2.8-1.8l0.1-0.8c0,0,0.5-2.3-1.9-2.7l-0.6-0.1
		c0,0-2.3-0.5-2.8,1.8l-0.2,0.8C122.8,90.9,122.4,93.1,124.7,93.6"/>
	<path clip-path="url(#SVGID_2_)" fill="#00BCDC" d="M40.2,71.3l-0.6-0.1c0,0-2.3-0.4-2.8,1.8l-0.2,0.8c0,0-0.5,2.3,1.9,2.7l0.6,0.1
		c0,0,2.3,0.5,2.8-1.8l0.2-0.8C42.1,74,42.5,71.7,40.2,71.3"/>
	<path clip-path="url(#SVGID_2_)" fill="#00BCDC" d="M53.5,49.7l-0.5-0.5c0,0-1.7-1.7-3.3,0l-0.6,0.6c0,0-1.6,1.6,0.1,3.3l0.4,0.4
		c0,0,1.7,1.7,3.3,0.1l0.6-0.6C53.6,53,55.2,51.4,53.5,49.7"/>
	<path clip-path="url(#SVGID_2_)" fill="#00BCDC" d="M111.4,115.2l0.5,0.4c0,0,1.7,1.7,3.3,0l0.6-0.6c0,0,1.6-1.6,0-3.3l-0.4-0.4
		c0,0-1.7-1.7-3.3-0.1l-0.6,0.6C111.3,111.9,109.7,113.5,111.4,115.2"/>
	<path clip-path="url(#SVGID_2_)" fill="#00BCDC" d="M85.1,38.8l0-0.6c0,0,0-2.4-2.3-2.4H82c0,0-2.3,0-2.3,2.4v0.6
		c0,0,0,2.4,2.3,2.4h0.8C82.8,41.2,85.2,41.2,85.1,38.8"/>
	<path clip-path="url(#SVGID_2_)" fill="#00BCDC" d="M79.7,126v0.6c0,0,0,2.4,2.3,2.4h0.8c0,0,2.3,0,2.3-2.4V126c0,0,0-2.4-2.3-2.4
		H82C82,123.7,79.7,123.7,79.7,126"/>
	<path clip-path="url(#SVGID_2_)" fill="#00BCDC" d="M76.6,39.1l-0.1-0.6c0,0-0.5-2.3-2.7-1.9l-0.8,0.1c0,0-2.3,0.5-1.8,2.8l0.1,0.6
		c0,0,0.5,2.3,2.7,1.9l0.8-0.2C74.8,41.9,77,41.4,76.6,39.1"/>
	<path clip-path="url(#SVGID_2_)" fill="#00BCDC" d="M88.3,125.7l0.1,0.6c0,0,0.5,2.4,2.7,1.9l0.8-0.1c0,0,2.3-0.5,1.8-2.8l-0.1-0.6
		c0,0-0.5-2.3-2.7-1.9l-0.8,0.2C90.1,123,87.8,123.4,88.3,125.7"/>
	<path clip-path="url(#SVGID_2_)" fill="#00BCDC" d="M121.7,101.6l0.6,0.2c0,0,2.2,0.9,3.1-1.2l0.3-0.7c0,0,0.9-2.1-1.3-3.1
		l-0.6-0.3c0,0-2.2-0.9-3.1,1.2l-0.3,0.8C120.4,98.6,119.5,100.7,121.7,101.6"/>
	<path clip-path="url(#SVGID_2_)" fill="#00BCDC" d="M43.2,63.2L42.6,63c0,0-2.2-0.9-3.1,1.2L39.2,65c0,0-0.9,2.1,1.3,3l0.6,0.2
		c0,0,2.2,0.9,3.1-1.2l0.3-0.8C44.5,66.3,45.4,64.1,43.2,63.2"/>
	<path clip-path="url(#SVGID_2_)" fill="#00BCDC" d="M93.6,40.2l0.1-0.6c0,0,0.5-2.3-1.8-2.8l-0.8-0.2c0,0-2.3-0.5-2.7,1.9l-0.1,0.6
		c0,0-0.5,2.3,1.8,2.8l0.8,0.2C90.9,42,93.1,42.5,93.6,40.2"/>
	<path clip-path="url(#SVGID_2_)" fill="#00BCDC" d="M71.3,124.7l-0.1,0.6c0,0-0.5,2.3,1.8,2.8l0.8,0.2c0,0,2.3,0.5,2.7-1.9l0.1-0.6
		c0,0,0.4-2.3-1.8-2.8l-0.8-0.2C74,122.8,71.7,122.4,71.3,124.7"/>
	<path clip-path="url(#SVGID_2_)" fill="#00BCDC" d="M104.4,120.2l0.4,0.5c0,0,1.3,2,3.2,0.7l0.7-0.5c0,0,1.9-1.3,0.6-3.3l-0.4-0.5
		c0,0-1.3-2-3.2-0.7L105,117C105,117,103.1,118.2,104.4,120.2"/>
	<path clip-path="url(#SVGID_2_)" fill="#00BCDC" d="M60.5,44.6l-0.4-0.5c0,0-1.3-2-3.2-0.7l-0.7,0.5c0,0-1.9,1.3-0.6,3.3l0.4,0.5
		c0,0,1.3,2,3.2,0.7l0.7-0.5C59.9,47.9,61.8,46.6,60.5,44.6"/>
	<path clip-path="url(#SVGID_2_)" fill="#00BCDC" d="M115.2,53.5l0.4-0.5c0,0,1.7-1.7,0-3.3l-0.6-0.6c0,0-1.6-1.6-3.3,0l-0.5,0.5
		c0,0-1.7,1.7-0.1,3.3l0.6,0.6C111.9,53.6,113.5,55.2,115.2,53.5"/>
	<path clip-path="url(#SVGID_2_)" fill="#00BCDC" d="M49.7,111.3l-0.5,0.4c0,0-1.7,1.7-0.1,3.3l0.6,0.6c0,0,1.6,1.6,3.3-0.1l0.4-0.4
		c0,0,1.7-1.7,0.1-3.3l-0.6-0.6C53,111.3,51.3,109.7,49.7,111.3"/>
	<path clip-path="url(#SVGID_2_)" fill="#00BCDC" d="M125.7,76.6l0.6-0.1c0,0,2.3-0.5,1.9-2.7l-0.2-0.8c0,0-0.4-2.3-2.8-1.8
		l-0.6,0.1c0,0-2.3,0.5-1.9,2.7l0.2,0.8C123,74.8,123.4,77,125.7,76.6"/>
	<path clip-path="url(#SVGID_2_)" fill="#00BCDC" d="M39.1,88.3l-0.6,0.1c0,0-2.3,0.5-1.9,2.7l0.2,0.8c0,0,0.4,2.3,2.8,1.8l0.6-0.1
		c0,0,2.3-0.5,1.9-2.7l-0.2-0.8C41.9,90.1,41.4,87.8,39.1,88.3"/>
	<path clip-path="url(#SVGID_2_)" fill="#00BCDC" d="M117.2,108.9l0.5,0.4c0,0,2,1.3,3.3-0.6l0.5-0.7c0,0,1.3-1.9-0.7-3.2l-0.5-0.4
		c0,0-2-1.3-3.3,0.6l-0.4,0.7C116.5,105.7,115.2,107.6,117.2,108.9"/>
	<path clip-path="url(#SVGID_2_)" fill="#00BCDC" d="M47.7,55.9l-0.5-0.4c0,0-2-1.3-3.3,0.6l-0.5,0.7c0,0-1.3,1.9,0.7,3.2l0.5,0.3
		c0,0,2,1.3,3.3-0.6l0.5-0.7C48.4,59.2,49.6,57.3,47.7,55.9"/>
	<path clip-path="url(#SVGID_2_)" fill="#00BCDC" d="M101.6,43.2l0.2-0.6c0,0,0.9-2.2-1.2-3.1l-0.7-0.3c0,0-2.1-0.9-3.1,1.3
		l-0.2,0.6c0,0-0.9,2.2,1.2,3.1l0.8,0.3C98.6,44.5,100.7,45.4,101.6,43.2"/>
	<path clip-path="url(#SVGID_2_)" fill="#00BCDC" d="M63.2,121.7l-0.2,0.6c0,0-0.9,2.2,1.2,3.1l0.8,0.3c0,0,2.1,0.9,3-1.3l0.2-0.6
		c0,0,0.9-2.2-1.2-3.1l-0.8-0.3C66.3,120.4,64.1,119.5,63.2,121.7"/>
	<path clip-path="url(#SVGID_2_)" fill="#00BCDC" d="M96.6,123.8l0.2,0.6c0,0,0.9,2.2,3.1,1.3l0.8-0.3c0,0,2.1-0.9,1.2-3.1l-0.2-0.6
		c0,0-0.9-2.2-3-1.3l-0.8,0.3C97.8,120.7,95.7,121.6,96.6,123.8"/>
	<path clip-path="url(#SVGID_2_)" fill="#00BCDC" d="M68.2,41.1L68,40.5c0,0-0.9-2.2-3-1.3l-0.8,0.3c0,0-2.1,0.9-1.2,3.1l0.2,0.6
		c0,0,0.9,2.2,3.1,1.3l0.7-0.3C67,44.2,69.2,43.3,68.2,41.1"/>
	<path clip-path="url(#SVGID_2_)" fill="#00BCDC" d="M120.2,60.4l0.5-0.3c0,0,2-1.3,0.7-3.2l-0.5-0.7c0,0-1.3-1.9-3.3-0.6l-0.5,0.4
		c0,0-2,1.3-0.7,3.2l0.4,0.7C116.9,59.8,118.2,61.8,120.2,60.4"/>
	<path clip-path="url(#SVGID_2_)" fill="#00BCDC" d="M44.6,104.4l-0.5,0.4c0,0-2,1.3-0.7,3.2l0.5,0.7c0,0,1.3,1.9,3.2,0.6l0.5-0.4
		c0,0,2-1.3,0.7-3.2l-0.5-0.7C47.9,105,46.6,103.1,44.6,104.4"/>
	<path clip-path="url(#SVGID_2_)" fill="#00BCDC" d="M126.1,85.1h0.6c0,0,2.4,0,2.4-2.3V82c0,0,0-2.3-2.4-2.3l-0.6,0
		c0,0-2.4,0-2.4,2.3v0.8C123.7,82.8,123.7,85.1,126.1,85.1"/>
	<path clip-path="url(#SVGID_2_)" fill="#00BCDC" d="M38.8,79.7h-0.6c0,0-2.4,0-2.4,2.3v0.8c0,0,0,2.3,2.4,2.3h0.6
		c0,0,2.4,0,2.4-2.3V82C41.2,82,41.2,79.7,38.8,79.7"/>
	<path clip-path="url(#SVGID_2_)" fill="#00BCDC" d="M127.5,19.8l1.4-2.1c0,0,1.5-2.3-0.7-3.8l0,0c0,0-2.2-1.5-3.8,0.8l-1.4,2.1
		c0,0-1.5,2.3,0.7,3.8l0,0C123.7,20.6,126,22.1,127.5,19.8"/>
	<path clip-path="url(#SVGID_2_)" fill="#00BCDC" d="M37.4,145l-1.4,2.2c0,0-1.5,2.3,0.7,3.8l0,0c0,0,2.2,1.5,3.8-0.8l1.4-2.1
		c0,0,1.5-2.3-0.7-3.8l0,0C41.1,144.2,38.9,142.7,37.4,145"/>
	<path clip-path="url(#SVGID_2_)" fill="#00BCDC" d="M154.7,55.4l2.4-1c0,0,2.6-1,1.5-3.5l0,0c0,0-1-2.5-3.6-1.4l-2.4,1
		c0,0-2.6,1.1-1.5,3.5l0,0C151.1,54,152.1,56.5,154.7,55.4"/>
	<path clip-path="url(#SVGID_2_)" fill="#00BCDC" d="M10.2,109.4l-2.4,1c0,0-2.6,1.1-1.5,3.5l0,0c0,0,1,2.5,3.6,1.4l2.4-1
		c0,0,2.6-1.1,1.5-3.6l0-0.1C13.8,110.8,12.7,108.4,10.2,109.4"/>
	<path clip-path="url(#SVGID_2_)" fill="#00BCDC" d="M157.5,100.1l2.5,0.5c0,0,2.7,0.5,3.2-2.1l0,0c0,0,0.5-2.6-2.2-3.2l-2.5-0.5
		c0,0-2.7-0.5-3.2,2.1l0,0.1C155.3,97,154.8,99.6,157.5,100.1"/>
	<path clip-path="url(#SVGID_2_)" fill="#00BCDC" d="M7.3,64.7l-2.5-0.5c0,0-2.7-0.5-3.3,2.1l0,0.1c0,0-0.5,2.6,2.2,3.2l2.5,0.5
		c0,0,2.7,0.5,3.2-2.1l0,0C9.5,67.9,10.1,65.3,7.3,64.7"/>
	<path clip-path="url(#SVGID_2_)" fill="#00BCDC" d="M29.8,26L28,24.2c0,0-2-1.9-3.9,0l0,0c0,0-1.9,1.9,0.1,3.9l1.8,1.8
		c0,0,2,2,3.9,0.1l0,0C29.9,29.8,31.8,27.9,29.8,26"/>
	<path clip-path="url(#SVGID_2_)" fill="#00BCDC" d="M135,138.9l1.8,1.8c0,0,2,1.9,3.9,0l0,0c0,0,1.9-1.9,0-3.9l-1.8-1.8
		c0,0-2-2-3.9-0.1l0,0C135,135,133.1,136.9,135,138.9"/>
	<path clip-path="url(#SVGID_2_)" fill="#00BCDC" d="M85.2,5.3l0-2.6c0,0,0-2.8-2.7-2.8h0c0,0-2.7,0-2.7,2.8v2.6c0,0,0,2.8,2.7,2.8
		h0C82.4,8.1,85.1,8.1,85.2,5.3"/>
	<path clip-path="url(#SVGID_2_)" fill="#00BCDC" d="M79.7,159.5v2.6c0,0,0,2.8,2.7,2.8h0c0,0,2.7,0,2.7-2.8v-2.6c0,0,0-2.8-2.7-2.8
		h0C82.4,156.7,79.7,156.7,79.7,159.5"/>
	<path clip-path="url(#SVGID_2_)" fill="#00BCDC" d="M70.1,6.3l-0.5-2.5c0,0-0.5-2.7-3.2-2.2l-0.1,0c0,0-2.6,0.5-2.1,3.2l0.5,2.5
		c0,0,0.5,2.7,3.2,2.2l0,0C68,9.5,70.6,9,70.1,6.3"/>
	<path clip-path="url(#SVGID_2_)" fill="#00BCDC" d="M94.8,158.6l0.5,2.5c0,0,0.6,2.7,3.2,2.2l0.1,0c0,0,2.6-0.5,2.1-3.3l-0.5-2.5
		c0,0-0.5-2.7-3.2-2.2l0,0C96.9,155.3,94.3,155.8,94.8,158.6"/>
	<path clip-path="url(#SVGID_2_)" fill="#00BCDC" d="M152.6,114.4l2.4,1c0,0,2.6,1.1,3.6-1.4l0,0c0,0,1-2.5-1.5-3.5l-2.4-1
		c0,0-2.6-1.1-3.6,1.4l0,0.1C151.1,110.9,150.1,113.4,152.6,114.4"/>
	<path clip-path="url(#SVGID_2_)" fill="#00BCDC" d="M12.2,50.4l-2.4-1c0,0-2.6-1.1-3.6,1.4l0,0c0,0-1,2.5,1.5,3.5l2.4,1
		c0,0,2.6,1.1,3.6-1.4l0,0C13.8,54,14.8,51.5,12.2,50.4"/>
	<path clip-path="url(#SVGID_2_)" fill="#00BCDC" d="M100.1,7.4l0.5-2.5c0,0,0.5-2.7-2.1-3.2l-0.1,0c0,0-2.6-0.5-3.2,2.2l-0.5,2.5
		c0,0-0.5,2.7,2.1,3.2l0.1,0C97,9.6,99.6,10.1,100.1,7.4"/>
	<path clip-path="url(#SVGID_2_)" fill="#00BCDC" d="M64.7,157.5l-0.5,2.5c0,0-0.5,2.7,2.1,3.2l0,0c0,0,2.7,0.5,3.2-2.2l0.5-2.5
		c0,0,0.5-2.7-2.1-3.2l-0.1,0C67.9,155.3,65.3,154.8,64.7,157.5"/>
	<path clip-path="url(#SVGID_2_)" fill="#00BCDC" d="M123,148l1.4,2.1c0,0,1.5,2.3,3.8,0.8l0,0c0,0,2.2-1.5,0.7-3.8l-1.4-2.2
		c0,0-1.5-2.3-3.8-0.8l0,0C123.7,144.2,121.5,145.7,123,148"/>
	<path clip-path="url(#SVGID_2_)" fill="#00BCDC" d="M41.9,16.8l-1.4-2.1c0,0-1.5-2.3-3.8-0.8l0,0c0,0-2.2,1.5-0.7,3.8l1.4,2.1
		c0,0,1.5,2.3,3.8,0.8l0,0C41.2,20.6,43.4,19.1,41.9,16.8"/>
	<path clip-path="url(#SVGID_2_)" fill="#00BCDC" d="M138.9,29.8l1.8-1.8c0,0,1.9-2,0-3.9l0,0c0,0-1.9-1.9-3.9,0.1L135,26
		c0,0-2,1.9-0.1,3.8l0,0C135,29.9,136.9,31.8,138.9,29.8"/>
	<path clip-path="url(#SVGID_2_)" fill="#00BCDC" d="M26,135l-1.8,1.8c0,0-2,2-0.1,3.9l0,0c0,0,1.9,1.9,3.9-0.1l1.8-1.8
		c0,0,2-2,0-3.9l0,0C29.9,135,28,133.1,26,135"/>
	<path clip-path="url(#SVGID_2_)" fill="#00BCDC" d="M158.6,70.1l2.5-0.5c0,0,2.7-0.5,2.2-3.2l0-0.1c0,0-0.5-2.6-3.2-2.1l-2.5,0.5
		c0,0-2.7,0.5-2.2,3.2l0,0.1C155.3,68,155.9,70.6,158.6,70.1"/>
	<path clip-path="url(#SVGID_2_)" fill="#00BCDC" d="M6.3,94.8l-2.5,0.5c0,0-2.7,0.5-2.2,3.2l0,0c0,0,0.5,2.6,3.3,2.1l2.5-0.5
		c0,0,2.7-0.5,2.2-3.2l0-0.1C9.5,96.9,9,94.3,6.3,94.8"/>
	<path clip-path="url(#SVGID_2_)" fill="#00BCDC" d="M145,127.5l2.1,1.4c0,0,2.3,1.5,3.8-0.7l0,0c0,0,1.5-2.3-0.8-3.8L148,123
		c0,0-2.3-1.5-3.8,0.7l0,0C144.2,123.7,142.7,126,145,127.5"/>
	<path clip-path="url(#SVGID_2_)" fill="#00BCDC" d="M19.8,37.3l-2.1-1.4c0,0-2.3-1.5-3.8,0.7l0,0c0,0-1.5,2.2,0.8,3.8l2.1,1.4
		c0,0,2.3,1.5,3.8-0.7l0,0C20.6,41.1,22.1,38.9,19.8,37.3"/>
	<path clip-path="url(#SVGID_2_)" fill="#00BCDC" d="M114.4,12.2l1-2.4c0,0,1.1-2.6-1.4-3.6l0,0c0,0-2.5-1-3.6,1.5l-1,2.4
		c0,0-1,2.6,1.4,3.6l0,0C110.9,13.8,113.4,14.8,114.4,12.2"/>
	<path clip-path="url(#SVGID_2_)" fill="#00BCDC" d="M50.4,152.6l-1,2.4c0,0-1.1,2.6,1.4,3.6l0,0c0,0,2.5,1,3.6-1.5l1-2.4
		c0,0,1.1-2.6-1.4-3.6l0,0C54,151.1,51.5,150.1,50.4,152.6"/>
	<path clip-path="url(#SVGID_2_)" fill="#00BCDC" d="M109.4,154.7l1,2.4c0,0,1.1,2.6,3.6,1.5l0,0c0,0,2.5-1,1.4-3.6l-1-2.4
		c0,0-1.1-2.6-3.5-1.5l0,0C110.9,151.1,108.4,152.1,109.4,154.7"/>
	<path clip-path="url(#SVGID_2_)" fill="#00BCDC" d="M55.4,10.2l-1-2.4c0,0-1.1-2.6-3.6-1.5l0,0c0,0-2.5,1-1.4,3.6l1,2.4
		c0,0,1.1,2.6,3.6,1.5l0.1,0C54,13.8,56.5,12.7,55.4,10.2"/>
	<path clip-path="url(#SVGID_2_)" fill="#00BCDC" d="M148,41.9l2.1-1.4c0,0,2.3-1.5,0.8-3.8l0,0c0,0-1.5-2.2-3.8-0.7l-2.2,1.4
		c0,0-2.3,1.5-0.8,3.8l0,0C144.2,41.2,145.7,43.4,148,41.9"/>
	<path clip-path="url(#SVGID_2_)" fill="#00BCDC" d="M16.8,123l-2.1,1.4c0,0-2.3,1.5-0.8,3.8l0,0c0,0,1.5,2.2,3.8,0.7l2.2-1.4
		c0,0,2.3-1.5,0.8-3.8l0,0C20.6,123.7,19.1,121.5,16.8,123"/>
	<path clip-path="url(#SVGID_2_)" fill="#00BCDC" d="M159.5,85.1h2.6c0,0,2.8,0,2.8-2.7v0c0,0,0-2.7-2.8-2.7h-2.6c0,0-2.8,0-2.8,2.7
		v0C156.8,82.4,156.8,85.1,159.5,85.1"/>
	<path clip-path="url(#SVGID_2_)" fill="#00BCDC" d="M5.3,79.7H2.8c0,0-2.8,0-2.8,2.7v0c0,0,0,2.7,2.8,2.7h2.6c0,0,2.8,0,2.8-2.7v0
		C8.1,82.4,8.1,79.7,5.3,79.7"/>
	<path clip-path="url(#SVGID_2_)" fill="#00BCDC" d="M123.7,25.5l0.3-0.5c0,0,1.3-2-0.6-3.2l-0.7-0.4c0,0-1.9-1.3-3.2,0.7l-0.4,0.5
		c0,0-1.3,2,0.6,3.3l0.7,0.4C120.5,26.2,122.4,27.5,123.7,25.5"/>
	<path clip-path="url(#SVGID_2_)" fill="#00BCDC" d="M41.2,139.3l-0.4,0.5c0,0-1.3,2,0.6,3.3l0.7,0.4c0,0,1.9,1.3,3.2-0.7l0.4-0.5
		c0,0,1.3-2-0.6-3.3l-0.7-0.4C44.4,138.6,42.5,137.4,41.2,139.3"/>
	<path clip-path="url(#SVGID_2_)" fill="#00BCDC" d="M148.3,58.1l0.6-0.2c0,0,2.2-0.9,1.3-3.1l-0.3-0.7c0,0-0.9-2.1-3.1-1.2
		l-0.6,0.2c0,0-2.2,0.9-1.3,3.1l0.3,0.8C145.3,56.8,146.2,59,148.3,58.1"/>
	<path clip-path="url(#SVGID_2_)" fill="#00BCDC" d="M16.5,106.8l-0.6,0.2c0,0-2.2,0.9-1.3,3l0.3,0.8c0,0,0.9,2.1,3.1,1.2l0.6-0.3
		c0,0,2.2-0.9,1.3-3l-0.3-0.8C19.6,108,18.7,105.9,16.5,106.8"/>
	<path clip-path="url(#SVGID_2_)" fill="#00BCDC" d="M150.8,98.8l0.6,0.1c0,0,2.3,0.5,2.8-1.8l0.2-0.8c0,0,0.4-2.3-1.9-2.7l-0.6-0.1
		c0,0-2.3-0.5-2.8,1.8l-0.2,0.8C148.9,96.1,148.5,98.3,150.8,98.8"/>
	<path clip-path="url(#SVGID_2_)" fill="#00BCDC" d="M14.1,66.1l-0.6-0.1c0,0-2.3-0.5-2.8,1.8l-0.1,0.8c0,0-0.5,2.3,1.9,2.7l0.6,0.1
		c0,0,2.3,0.5,2.8-1.8l0.2-0.8C15.9,68.8,16.4,66.5,14.1,66.1"/>
	<path clip-path="url(#SVGID_2_)" fill="#00BCDC" d="M34.7,30.9l-0.5-0.5c0,0-1.7-1.7-3.3,0l-0.6,0.6c0,0-1.6,1.6,0.1,3.3l0.4,0.5
		c0,0,1.7,1.7,3.3,0l0.6-0.6C34.7,34.2,36.4,32.5,34.7,30.9"/>
	<path clip-path="url(#SVGID_2_)" fill="#00BCDC" d="M130.2,134l0.5,0.4c0,0,1.7,1.7,3.3,0.1l0.6-0.6c0,0,1.6-1.6-0.1-3.3l-0.4-0.4
		c0,0-1.7-1.7-3.3-0.1l-0.6,0.6C130.1,130.7,128.5,132.3,130.2,134"/>
	<path clip-path="url(#SVGID_2_)" fill="#00BCDC" d="M85.1,12.2l0-0.6c0,0,0-2.4-2.3-2.4H82c0,0-2.3,0-2.3,2.4l0,0.6
		c0,0,0,2.4,2.3,2.4h0.8C82.8,14.6,85.2,14.6,85.1,12.2"/>
	<path clip-path="url(#SVGID_2_)" fill="#00BCDC" d="M79.7,152.7l0,0.6c0,0,0,2.4,2.3,2.4h0.8c0,0,2.3,0,2.3-2.4v-0.6
		c0,0,0-2.4-2.3-2.4H82C82,150.3,79.7,150.3,79.7,152.7"/>
	<path clip-path="url(#SVGID_2_)" fill="#00BCDC" d="M71.4,13l-0.1-0.6c0,0-0.5-2.3-2.7-1.9l-0.8,0.2c0,0-2.3,0.5-1.8,2.8l0.1,0.6
		c0,0,0.5,2.3,2.7,1.9l0.8-0.2C69.6,15.8,71.8,15.3,71.4,13"/>
	<path clip-path="url(#SVGID_2_)" fill="#00BCDC" d="M93.5,151.9l0.1,0.6c0,0,0.5,2.3,2.7,1.9l0.8-0.2c0,0,2.3-0.5,1.8-2.8l-0.1-0.6
		c0,0-0.4-2.3-2.7-1.9l-0.8,0.2C95.3,149.1,93,149.5,93.5,151.9"/>
	<path clip-path="url(#SVGID_2_)" fill="#00BCDC" d="M146.3,111.8l0.6,0.3c0,0,2.2,0.9,3.1-1.2l0.3-0.8c0,0,0.9-2.1-1.3-3l-0.6-0.2
		c0,0-2.2-0.9-3.1,1.2l-0.3,0.8C145,108.8,144.1,110.9,146.3,111.8"/>
	<path clip-path="url(#SVGID_2_)" fill="#00BCDC" d="M18.6,53L18,52.8c0,0-2.2-0.9-3.1,1.2l-0.3,0.7c0,0-0.9,2.1,1.3,3.1l0.6,0.2
		c0,0,2.2,0.9,3.1-1.2l0.3-0.8C19.9,56.1,20.8,54,18.6,53"/>
	<path clip-path="url(#SVGID_2_)" fill="#00BCDC" d="M98.8,14.1l0.1-0.6c0,0,0.5-2.3-1.8-2.8l-0.8-0.2c0,0-2.3-0.4-2.7,1.9L93.5,13
		c0,0-0.5,2.3,1.8,2.8l0.8,0.2C96.1,15.9,98.3,16.4,98.8,14.1"/>
	<path clip-path="url(#SVGID_2_)" fill="#00BCDC" d="M66.1,150.8l-0.1,0.6c0,0-0.5,2.3,1.8,2.8l0.8,0.2c0,0,2.3,0.5,2.7-1.9l0.1-0.6
		c0,0,0.4-2.3-1.8-2.8l-0.8-0.2C68.8,148.9,66.5,148.4,66.1,150.8"/>
	<path clip-path="url(#SVGID_2_)" fill="#00BCDC" d="M119.2,142.3l0.4,0.5c0,0,1.3,2,3.2,0.7l0.7-0.4c0,0,1.9-1.3,0.6-3.3l-0.3-0.5
		c0,0-1.3-2-3.2-0.7l-0.7,0.4C119.8,139.1,117.9,140.4,119.2,142.3"/>
	<path clip-path="url(#SVGID_2_)" fill="#00BCDC" d="M45.7,22.5L45.3,22c0,0-1.3-2-3.2-0.7l-0.7,0.5c0,0-1.9,1.3-0.6,3.3l0.4,0.5
		c0,0,1.3,2,3.2,0.7l0.7-0.4C45.1,25.8,47,24.5,45.7,22.5"/>
	<path clip-path="url(#SVGID_2_)" fill="#00BCDC" d="M134,34.7l0.4-0.4c0,0,1.7-1.7,0-3.3l-0.6-0.6c0,0-1.6-1.6-3.3,0l-0.5,0.5
		c0,0-1.7,1.7,0,3.3l0.6,0.6C130.7,34.7,132.3,36.4,134,34.7"/>
	<path clip-path="url(#SVGID_2_)" fill="#00BCDC" d="M30.8,130.2l-0.5,0.4c0,0-1.7,1.7,0,3.3l0.6,0.6c0,0,1.6,1.6,3.3-0.1l0.4-0.4
		c0,0,1.7-1.7,0.1-3.3l-0.6-0.6C34.2,130.1,32.5,128.5,30.8,130.2"/>
	<path clip-path="url(#SVGID_2_)" fill="#00BCDC" d="M151.8,71.4l0.6-0.1c0,0,2.3-0.5,1.9-2.7l-0.2-0.8c0,0-0.5-2.3-2.8-1.8
		l-0.6,0.1c0,0-2.3,0.5-1.9,2.7l0.2,0.8C149.1,69.6,149.5,71.9,151.8,71.4"/>
	<path clip-path="url(#SVGID_2_)" fill="#00BCDC" d="M13,93.5l-0.6,0.1c0,0-2.3,0.5-1.9,2.7l0.1,0.8c0,0,0.5,2.3,2.8,1.8l0.6-0.1
		c0,0,2.3-0.5,1.9-2.7l-0.2-0.8C15.8,95.3,15.3,93,13,93.5"/>
	<path clip-path="url(#SVGID_2_)" fill="#00BCDC" d="M139.3,123.7l0.5,0.3c0,0,2,1.3,3.3-0.6l0.4-0.7c0,0,1.3-1.9-0.7-3.3l-0.5-0.3
		c0,0-2-1.3-3.2,0.6l-0.4,0.7C138.6,120.5,137.4,122.4,139.3,123.7"/>
	<path clip-path="url(#SVGID_2_)" fill="#00BCDC" d="M25.5,41.2L25,40.8c0,0-2-1.3-3.3,0.6l-0.4,0.7c0,0-1.3,1.9,0.7,3.2l0.5,0.4
		c0,0,2,1.3,3.3-0.6l0.5-0.7C26.2,44.4,27.5,42.5,25.5,41.2"/>
	<path clip-path="url(#SVGID_2_)" fill="#00BCDC" d="M111.8,18.6l0.2-0.6c0,0,0.9-2.2-1.2-3.1l-0.7-0.3c0,0-2.1-0.9-3.1,1.3
		l-0.2,0.6c0,0-0.9,2.2,1.2,3.1l0.8,0.3C108.8,19.9,110.9,20.8,111.8,18.6"/>
	<path clip-path="url(#SVGID_2_)" fill="#00BCDC" d="M53,146.3l-0.2,0.6c0,0-0.9,2.2,1.2,3.1l0.8,0.3c0,0,2.1,0.9,3-1.3l0.2-0.6
		c0,0,0.9-2.2-1.2-3.1l-0.8-0.3C56.1,145,53.9,144.1,53,146.3"/>
	<path clip-path="url(#SVGID_2_)" fill="#00BCDC" d="M106.8,148.4l0.2,0.6c0,0,0.9,2.2,3.1,1.3l0.7-0.3c0,0,2.1-0.9,1.2-3.1
		l-0.2-0.6c0,0-0.9-2.2-3-1.3l-0.8,0.3C108,145.3,105.9,146.2,106.8,148.4"/>
	<path clip-path="url(#SVGID_2_)" fill="#00BCDC" d="M58.1,16.5l-0.2-0.6c0,0-0.9-2.2-3-1.3L54,14.9c0,0-2.1,0.9-1.2,3.1l0.2,0.6
		c0,0,0.9,2.2,3.1,1.3l0.7-0.3C56.8,19.6,59,18.7,58.1,16.5"/>
	<path clip-path="url(#SVGID_2_)" fill="#00BCDC" d="M142.3,45.7l0.5-0.3c0,0,2-1.3,0.7-3.2l-0.4-0.7c0,0-1.3-1.9-3.3-0.6l-0.5,0.4
		c0,0-2,1.3-0.7,3.2l0.4,0.7C139.1,45.1,140.4,47,142.3,45.7"/>
	<path clip-path="url(#SVGID_2_)" fill="#00BCDC" d="M22.5,119.2l-0.5,0.3c0,0-2,1.3-0.7,3.3l0.4,0.7c0,0,1.3,1.9,3.3,0.6l0.5-0.3
		c0,0,2-1.3,0.7-3.2l-0.4-0.7C25.8,119.8,24.5,117.9,22.5,119.2"/>
	<path clip-path="url(#SVGID_2_)" fill="#00BCDC" d="M152.7,85.1h0.6c0,0,2.4,0,2.4-2.3V82c0,0,0-2.3-2.4-2.3h-0.6
		c0,0-2.4,0-2.4,2.3v0.8C150.3,82.8,150.3,85.1,152.7,85.1"/>
	<path clip-path="url(#SVGID_2_)" fill="#00BCDC" d="M12.2,79.7l-0.6,0c0,0-2.4,0-2.4,2.3v0.8c0,0,0,2.3,2.4,2.3h0.6
		c0,0,2.4,0,2.4-2.3V82C14.6,82,14.6,79.7,12.2,79.7"/>
	<path clip-path="url(#SVGID_2_)" fill="#00BCDC" d="M104,96.4c0.1,0,0.2,0,0.2-0.2v-0.3c0-0.1-0.1-0.2-0.2-0.2h-4.7v-4.3h4.2
		c0.1,0,0.2-0.1,0.2-0.2v-0.3c0-0.1-0.1-0.2-0.2-0.2h-4.2v-3.8h4.5c0.1,0,0.2,0,0.2-0.2v-0.3c0-0.1-0.1-0.2-0.2-0.2h-5.1
		c-0.1,0-0.2,0.1-0.2,0.2v9.8c0,0.1,0.1,0.2,0.2,0.2H104z M95.6,86.4c0-0.1,0-0.2-0.2-0.2H95c-0.1,0-0.2,0.1-0.2,0.2v8.4
		c0,0-0.3-0.6-0.4-0.9l-4.3-7.7c0,0-0.1-0.1-0.1-0.1h-0.4c-0.1,0-0.2,0.1-0.2,0.2v9.8c0,0.1,0.1,0.2,0.2,0.2h0.4
		c0.1,0,0.2-0.1,0.2-0.2v-8.4c0,0,0.3,0.5,0.5,0.9l4.3,7.6c0,0.1,0.1,0.1,0.2,0.1h0.4c0.1,0,0.2-0.1,0.2-0.2V86.4z M86.5,86.4
		c0-0.1,0-0.2-0.2-0.2h-0.4c-0.1,0-0.2,0.1-0.2,0.2v9.8c0,0.1,0.1,0.2,0.2,0.2h0.4c0.1,0,0.2-0.1,0.2-0.2V86.4z M79.1,86.4
		c0-0.1,0-0.2-0.2-0.2h-0.4c-0.1,0-0.2,0.1-0.2,0.2v9.8c0,0.1,0.1,0.2,0.1,0.2h5.1c0.1,0,0.2,0,0.2-0.2v-0.3c0-0.1-0.1-0.2-0.2-0.2
		h-4.4V86.4z M75.4,86.4c0-0.1,0-0.2-0.2-0.2h-0.4c-0.1,0-0.2,0.1-0.2,0.2v8.4c0,0-0.3-0.6-0.4-0.9l-4.3-7.7c0,0-0.1-0.1-0.1-0.1
		h-0.4c-0.1,0-0.2,0.1-0.2,0.2v9.8c0,0.1,0.1,0.2,0.2,0.2h0.4c0.1,0,0.2-0.1,0.2-0.2v-8.4c0,0,0.3,0.5,0.5,0.9l4.3,7.6
		c0,0.1,0.1,0.1,0.2,0.1h0.4c0.1,0,0.2-0.1,0.2-0.2V86.4z M65.7,94.3c0,0.9-0.6,1.5-2.3,1.5c-1.7,0-2.3-0.6-2.3-1.5v-6
		c0-0.9,0.6-1.5,2.3-1.5c1.8,0,2.3,0.6,2.3,1.5V94.3z M60.2,94.4c0,1.2,0.7,2.1,3.1,2.1c2.4,0,3.1-0.9,3.1-2.1v-6.2
		c0-1.2-0.7-2.1-3.1-2.1c-2.4,0-3.1,0.9-3.1,2.1V94.4z"/>
	<path clip-path="url(#SVGID_2_)" fill="#00BCDC" d="M110.4,79.5c0.1,0,0.2,0,0.2-0.2V79c0-0.1-0.1-0.2-0.2-0.2h-4.7v-4.3h4.2
		c0.1,0,0.2-0.1,0.2-0.2V74c0-0.1-0.1-0.2-0.2-0.2h-4.2V70h4.5c0.1,0,0.2,0,0.2-0.2v-0.3c0-0.1-0.1-0.2-0.2-0.2h-5.1
		c-0.1,0-0.2,0.1-0.2,0.2v9.8c0,0.1,0.1,0.2,0.2,0.2H110.4z M101.5,72c0,0.1,0,0.2,0.2,0.2h0.4c0.1,0,0.2-0.1,0.2-0.2v-0.7
		c0-1.2-0.7-2.1-3-2.1c-2.4,0-3,0.9-3,2.1v0.8c0,0.9,0.7,1.5,1.3,1.8l2.8,1.1c0.6,0.2,1.2,0.6,1.2,1.4v1.1c0,0.9-0.6,1.5-2.3,1.5
		c-1.8,0-2.3-0.6-2.3-1.5v-0.7c0-0.1-0.1-0.2-0.2-0.2h-0.4c-0.1,0-0.2,0.1-0.2,0.2v0.8c0,1.2,0.7,2.1,3.1,2.1c2.4,0,3.1-0.9,3.1-2.1
		v-1.3c0-1-0.7-1.6-1.5-1.9L98,73.2c-0.4-0.2-0.9-0.5-0.9-1.3v-0.6c0-0.9,0.5-1.5,2.2-1.5c1.7,0,2.2,0.6,2.2,1.5V72z M93.6,69.5
		c0-0.1,0-0.2-0.2-0.2H93c-0.1,0-0.2,0.1-0.2,0.2v9.8c0,0.1,0.1,0.2,0.2,0.2h0.4c0.1,0,0.2-0.1,0.2-0.2V69.5z M89.9,69.5
		c0-0.1,0-0.2-0.2-0.2h-0.4c-0.1,0-0.1,0-0.2,0.1l-2.9,7c-0.1,0.3-0.3,0.7-0.3,0.7s-0.1-0.4-0.2-0.7l-3-7c0-0.1-0.1-0.1-0.2-0.1
		h-0.4c-0.1,0-0.2,0.1-0.2,0.2v9.8c0,0.1,0.1,0.2,0.2,0.2h0.4c0.1,0,0.2-0.1,0.2-0.2v-8.3c0,0.1,0.1,0.5,0.2,0.7l2.5,6.1
		c0,0.1,0.1,0.2,0.2,0.2h0.4c0.1,0,0.2-0.1,0.2-0.2l2.5-5.9l0.3-0.8v8.3c0,0.1,0.1,0.2,0.2,0.2h0.4c0.1,0,0.2-0.1,0.2-0.2V69.5z
		 M79.1,69.5c0-0.1,0-0.2-0.2-0.2h-0.4c-0.1,0-0.2,0.1-0.2,0.2v9.8c0,0.1,0.1,0.2,0.2,0.2H79c0.1,0,0.2-0.1,0.2-0.2V69.5z
		 M70.2,69.3c-0.1,0-0.2,0-0.2,0.2v0.3c0,0.1,0,0.2,0.2,0.2h2.7v9.3c0,0.1,0,0.2,0.2,0.2h0.4c0.1,0,0.2-0.1,0.2-0.2V70h2.7
		c0.1,0,0.2,0,0.2-0.2v-0.3c0-0.1-0.1-0.2-0.2-0.2H70.2z M65.8,70c1.8,0,2.3,0.6,2.3,1.5v1.7c0,0.9-0.6,1.5-2.3,1.5h-2.3V70H65.8z
		 M65.8,75.5c2.4,0,3.1-0.9,3.1-2.1v-1.9c0-1.2-0.7-2.1-3.1-2.1h-2.9c-0.1,0-0.2,0.1-0.2,0.2v9.8c0,0.1,0.1,0.2,0.2,0.2h0.4
		c0.1,0,0.2-0.1,0.2-0.2v-3.8H65.8z M59.2,77.4c0,0.9-0.6,1.5-2.3,1.5c-1.7,0-2.3-0.6-2.3-1.5v-6c0-0.9,0.6-1.5,2.3-1.5
		c1.8,0,2.3,0.6,2.3,1.5V77.4z M53.8,77.5c0,1.2,0.7,2.1,3.1,2.1c2.4,0,3.1-0.9,3.1-2.1v-6.2c0-1.2-0.7-2.1-3.1-2.1
		c-2.4,0-3.1,0.9-3.1,2.1V77.5z"/>
</g>
<g>
</g>
<g>
</g>
<g>
</g>
<g>
</g>
<g>
</g>
<g>
</g>
<g>
</g>
<g>
</g>
<g>
</g>
<g>
</g>
<g>
</g>
<g>
</g>
<g>
</g>
<g>
</g>
<g>
</g>
</svg>
